<?xml version="1.0" standalone="no"?>
<!DOCTYPE svg PUBLIC "-//W3C//DTD SVG 20010904//EN"
 "http://www.w3.org/TR/2001/REC-SVG-20010904/DTD/svg10.dtd">
<svg version="1.0" xmlns="http://www.w3.org/2000/svg"
 width="812.000000pt" height="812.000000pt" viewBox="0 0 812.000000 812.000000"
 preserveAspectRatio="xMidYMid meet">
<metadata>
Created by potrace 1.14, written by Peter Selinger 2001-2017
</metadata>
<g transform="translate(0.000000,812.000000) scale(0.100000,-0.100000)"
fill="#000000" stroke="none">
<path d="M5180 7212 c-17 -13 -28 -27 -25 -32 3 -5 1 -11 -3 -14 -14 -8 -2
-59 17 -76 10 -8 28 -21 40 -28 13 -8 40 -23 60 -35 20 -11 53 -29 74 -39 20
-10 37 -22 37 -26 0 -4 -710 -7 -1577 -7 -868 0 -1591 -3 -1607 -7 -46 -12
-96 -50 -116 -88 -20 -40 -19 -82 5 -187 10 -45 13 -59 19 -106 4 -27 9 -59
12 -70 10 -50 26 -229 28 -301 l1 -59 -94 -3 c-146 -5 -214 -14 -387 -50 -57
-11 -203 -58 -286 -90 -143 -56 -404 -198 -416 -226 -2 -5 -10 -8 -17 -8 -7 0
-15 -3 -17 -7 -2 -5 -37 -35 -78 -67 -150 -119 -317 -304 -433 -481 -25 -39
-61 -84 -79 -101 -71 -63 -157 -198 -211 -329 -36 -89 -40 -99 -42 -110 -2 -5
-12 -44 -23 -85 -12 -41 -24 -95 -26 -120 -3 -25 -8 -56 -11 -70 -20 -96 -28
-539 -12 -660 37 -277 88 -459 181 -642 30 -59 59 -113 65 -120 6 -7 29 -37
52 -66 58 -76 145 -122 252 -135 43 -6 55 -13 121 -79 85 -85 124 -121 186
-168 25 -19 47 -37 50 -40 3 -3 12 -9 21 -15 9 -5 41 -26 70 -46 30 -19 70
-44 89 -55 19 -10 37 -21 40 -24 8 -8 118 -61 190 -91 70 -30 72 -34 45 -94
-7 -16 -32 -77 -55 -135 -47 -119 -76 -187 -90 -212 -6 -10 -10 -25 -10 -33 0
-8 -4 -15 -8 -15 -4 0 -9 -10 -9 -22 -1 -13 -7 -24 -13 -26 -5 -2 -10 -8 -10
-13 0 -5 -32 -75 -72 -157 -87 -180 -94 -226 -47 -292 48 -66 85 -77 260 -78
104 0 152 4 154 12 3 6 7 22 9 36 7 33 13 58 25 97 5 18 6 35 3 37 -4 2 -68 4
-142 4 -109 0 -134 3 -132 13 2 8 18 46 37 84 52 110 102 218 131 287 14 35
34 81 43 103 10 22 30 72 46 110 15 39 33 84 40 100 7 17 19 47 26 68 9 25 18
36 29 33 18 -5 81 -20 95 -22 6 -1 12 -3 15 -4 3 -1 14 -3 25 -5 11 -1 38 -6
60 -10 22 -3 51 -8 65 -10 45 -8 194 -18 265 -18 82 0 263 11 273 17 4 2 32 7
62 10 50 6 204 40 240 53 8 3 22 7 31 9 8 2 53 18 100 36 46 18 87 31 92 30 4
-1 7 3 7 8 0 6 6 10 13 10 14 0 179 81 187 92 3 4 17 12 30 17 23 10 44 22 74
43 197 135 389 315 511 478 104 141 242 379 228 394 -4 3 -2 6 4 6 6 0 14 11
17 24 3 13 17 37 31 52 13 16 36 43 50 59 43 50 132 252 149 340 1 6 5 19 9
30 3 11 8 31 11 45 2 14 10 48 16 75 16 68 17 73 24 125 3 25 9 56 12 70 10
41 12 361 3 425 -5 33 -11 85 -15 115 -3 30 -7 57 -9 61 -2 3 -7 21 -10 40
-35 201 -161 502 -244 583 -54 53 -123 75 -198 65 -31 -4 -67 -13 -80 -20 -21
-11 -26 -9 -60 32 -43 52 -202 210 -258 258 -22 18 -69 54 -105 79 -36 26 -66
50 -68 54 -2 5 -8 8 -14 8 -5 0 -22 8 -36 19 -31 22 -74 46 -152 85 -30 16
-63 32 -73 37 -24 13 -164 68 -212 84 -92 31 -237 65 -348 81 -21 3 -46 7 -55
8 -9 2 -17 13 -18 27 -1 13 -4 69 -8 124 -3 55 -8 111 -11 125 -2 14 -6 45 -9
70 l-5 45 1140 -1 1141 0 10 25 c5 14 12 40 15 56 l5 30 -1161 0 -1161 0 -10
25 c-5 14 -12 46 -15 72 l-6 46 1557 0 1558 1 -64 -35 c-36 -19 -97 -51 -137
-72 -91 -47 -116 -87 -87 -143 18 -35 35 -48 70 -51 28 -2 104 18 114 31 3 4
61 35 130 70 69 35 148 76 175 91 28 15 91 48 140 73 97 50 127 83 122 134 -7
58 -23 74 -137 134 -25 13 -47 26 -50 29 -3 3 -21 13 -40 23 -19 9 -62 33 -95
52 -33 19 -67 38 -75 42 -8 3 -17 9 -20 12 -3 3 -37 23 -77 44 -82 43 -117 45
-163 9z"/>
<path d="M6015 6940 c-2 -8 -6 -26 -9 -40 -5 -25 -10 -49 -22 -102 -7 -33 -23
-30 184 -28 132 1 142 0 142 -17 0 -11 -4 -23 -9 -28 -5 -6 -41 -86 -81 -180
-39 -93 -75 -179 -80 -190 -12 -28 -33 -79 -65 -160 -15 -38 -33 -83 -40 -100
-7 -16 -27 -68 -45 -115 -18 -47 -39 -98 -46 -115 -17 -43 -152 -417 -156
-434 -2 -12 14 -15 87 -16 50 -1 95 2 102 7 6 5 15 24 19 41 3 17 10 38 15 47
4 8 33 85 65 170 31 85 61 166 67 180 6 14 11 30 12 36 2 6 9 27 18 45 8 19
26 63 40 99 47 117 178 434 200 480 11 25 22 50 23 55 1 6 15 38 32 73 17 34
29 62 27 62 -2 0 2 11 9 25 24 47 3 126 -46 172 -42 40 -75 46 -261 47 -150 1
-178 -1 -182 -14z"/>
<path d="M4833 5252 c-27 -4 -60 -48 -67 -88 -2 -16 -5 -29 -6 -29 -1 0 -4
-11 -7 -25 -2 -14 -6 -29 -7 -35 -14 -52 -87 -349 -92 -370 -2 -11 -6 -29 -8
-40 -2 -11 -14 -58 -26 -105 -12 -47 -23 -89 -24 -95 -1 -5 -15 -63 -30 -128
-23 -94 -26 -120 -16 -132 10 -12 38 -15 130 -15 101 0 119 3 134 18 14 17 46
120 60 195 14 78 38 116 62 99 10 -7 13 -18 64 -177 17 -55 39 -108 47 -117
14 -16 35 -18 150 -18 143 0 173 7 173 43 0 12 -32 86 -71 165 -81 162 -81
156 9 199 56 26 172 128 172 150 0 7 3 13 8 13 11 0 43 76 57 135 15 65 9 136
-16 188 -31 65 -49 82 -133 128 -37 20 -52 25 -106 35 -29 6 -424 11 -457 6z
m375 -253 c12 -8 28 -31 34 -51 20 -66 -32 -162 -102 -190 -33 -14 -163 -18
-171 -6 -4 6 -2 26 3 47 5 20 11 47 14 61 2 14 7 32 10 40 3 8 8 29 11 45 2
17 11 40 19 52 13 21 21 23 87 20 40 -2 82 -10 95 -18z"/>
<path d="M5790 5243 c-23 -9 -50 -40 -55 -63 -1 -3 -5 -23 -10 -45 -5 -22 -10
-42 -10 -45 -1 -3 -7 -23 -13 -45 -6 -22 -14 -53 -17 -70 -3 -16 -14 -64 -25
-105 -12 -41 -22 -84 -24 -95 -2 -11 -8 -38 -14 -60 -6 -22 -14 -53 -17 -70
-8 -39 -13 -60 -15 -60 -1 0 -4 -11 -6 -24 -4 -21 -17 -73 -40 -161 -2 -8 -11
-50 -20 -93 -27 -123 -44 -117 316 -117 226 0 300 3 314 13 19 14 56 133 56
179 0 16 -7 31 -17 35 -10 5 -91 8 -180 7 -160 -1 -163 0 -163 21 0 31 29 138
41 150 6 6 73 10 155 11 173 1 174 1 203 114 28 114 27 115 -145 117 -77 0
-143 2 -147 2 -11 1 -3 60 18 129 14 46 19 52 43 53 15 0 81 0 147 0 177 -1
186 5 214 121 14 61 14 95 -1 105 -22 13 -556 10 -588 -4z"/>
<path d="M4554 4028 c-50 -13 -67 -42 -89 -148 -2 -8 -10 -42 -18 -75 -9 -33
-18 -71 -21 -85 -3 -14 -17 -72 -31 -130 -15 -58 -28 -112 -30 -120 -2 -8 -13
-53 -25 -100 -12 -47 -24 -96 -26 -110 -3 -14 -17 -75 -33 -135 -31 -120 -29
-154 11 -156 65 -3 190 -1 210 4 26 7 45 33 53 74 12 66 45 177 54 186 6 6 46
12 89 13 165 4 270 37 387 119 126 89 195 208 201 347 6 151 -87 262 -260 309
-45 13 -430 18 -472 7z m366 -243 c76 -39 80 -156 7 -237 -13 -16 -29 -28 -36
-28 -6 0 -11 -4 -11 -9 0 -13 -80 -33 -140 -35 -54 -2 -87 15 -74 36 6 10 13
36 39 155 3 12 9 33 14 45 5 13 9 25 9 28 2 29 17 60 30 62 38 8 134 -2 162
-17z"/>
<path d="M5504 4032 c-42 -6 -57 -35 -89 -175 -2 -10 -7 -27 -10 -37 -3 -10
-8 -27 -10 -38 -3 -19 -70 -296 -82 -342 -3 -14 -7 -29 -8 -35 -23 -98 -58
-237 -65 -260 -4 -16 -14 -56 -21 -88 -20 -94 -38 -90 356 -90 319 0 337 1
356 19 25 26 66 191 52 213 -9 14 -41 17 -214 21 l-204 5 2 30 c1 17 4 39 6
50 3 11 24 97 47 190 22 94 54 224 71 290 49 197 52 216 40 234 -6 9 -36 14
-107 15 -55 0 -109 0 -120 -2z"/>
<path d="M6664 4025 c-37 -11 -91 -56 -105 -89 -4 -12 -22 -43 -38 -71 -16
-27 -42 -72 -56 -100 -15 -27 -33 -57 -41 -66 -8 -8 -14 -18 -14 -21 0 -3 -49
-92 -110 -198 -60 -105 -110 -195 -110 -200 0 -5 -4 -10 -8 -12 -7 -3 -107
-175 -141 -242 -13 -27 -12 -31 5 -45 18 -15 96 -19 226 -12 24 1 56 38 81 91
38 84 28 80 233 80 111 0 185 -4 189 -10 3 -6 9 -38 11 -73 3 -34 11 -68 19
-76 11 -12 110 -17 237 -12 47 2 60 25 53 95 -3 33 -8 68 -10 76 -2 8 -7 35
-10 60 -3 25 -8 56 -10 70 -2 14 -7 45 -10 70 -3 25 -10 70 -15 100 -5 30 -12
75 -15 100 -3 25 -8 56 -10 70 -3 14 -7 41 -9 60 -6 44 -15 107 -21 140 -3 14
-7 48 -11 75 -12 95 -21 118 -56 136 -28 15 -207 18 -254 4z m57 -322 c0 -5 2
-17 4 -28 6 -29 18 -192 19 -245 l1 -45 -58 -1 c-31 -1 -64 -4 -72 -8 -8 -3
-17 -1 -20 3 -3 5 -14 7 -24 4 -10 -3 -21 -1 -24 5 -5 7 114 256 147 311 8 13
26 15 27 4z"/>
<path d="M7189 4030 c-45 -11 -50 -38 -23 -120 14 -41 27 -82 29 -90 2 -8 10
-35 18 -60 8 -25 34 -106 57 -180 23 -74 48 -155 56 -179 17 -49 11 -86 -41
-286 -37 -141 -30 -151 96 -148 121 2 122 2 142 18 16 12 52 133 83 275 2 14
9 39 14 57 7 28 105 161 333 453 32 41 64 82 70 90 7 9 29 36 49 61 46 57 58
96 32 106 -29 11 -227 7 -250 -5 -17 -9 -199 -267 -224 -317 -14 -28 -59 -92
-73 -103 -17 -15 -27 -5 -32 31 -2 12 -6 33 -8 47 -3 14 -11 59 -17 100 -7 41
-14 84 -16 95 -2 11 -7 40 -10 65 -6 49 -27 89 -47 91 -52 4 -220 3 -238 -1z"/>
<path d="M5199 2808 c-24 -78 -27 -678 -4 -873 2 -16 6 -61 10 -100 3 -38 8
-77 10 -85 3 -8 7 -39 10 -68 l5 -52 -1185 -2 c-652 -2 -1185 -6 -1185 -10 -1
-4 -7 -26 -16 -49 -8 -23 -12 -44 -10 -46 2 -3 547 -5 1210 -5 1113 0 1206 -1
1210 -16 5 -18 13 -58 21 -109 4 -27 2 -33 -12 -34 -125 -4 -3113 -2 -3113 2
0 3 55 34 122 69 67 34 128 68 135 75 57 57 13 159 -68 157 -16 0 -89 -32
-161 -70 -73 -38 -205 -106 -293 -152 -173 -89 -215 -122 -215 -171 0 -54 21
-81 90 -118 25 -13 52 -30 61 -37 8 -8 18 -14 21 -14 4 0 50 -25 103 -55 54
-30 99 -55 101 -55 2 0 43 -24 91 -52 110 -65 160 -71 199 -23 24 30 27 65 9
107 -7 17 -58 50 -167 108 -26 14 -48 29 -50 33 -2 5 719 9 1602 9 1734 0
1640 -3 1698 51 43 40 55 88 40 162 -5 22 -11 54 -14 70 -3 17 -10 44 -15 61
-5 18 -9 36 -8 40 1 5 -1 20 -4 34 -8 32 -21 117 -32 210 -3 25 -7 61 -10 80
-19 139 -25 555 -12 798 l7 132 -90 0 c-49 0 -90 -1 -91 -2z"/>
</g>
</svg>
