<svg id="Raggruppa_51" data-name="Raggruppa 51" xmlns="http://www.w3.org/2000/svg" xmlns:xlink="http://www.w3.org/1999/xlink" width="153.63" height="70.377" viewBox="0 0 153.63 70.377">
  <defs>
    <clipPath id="clip-path">
      <rect id="Rettangolo_49" data-name="Rettangolo 49" width="153.63" height="70.377" fill="none"/>
    </clipPath>
  </defs>
  <g id="Raggruppa_50" data-name="Raggruppa 50" clip-path="url(#clip-path)">
    <path id="Tracciato_209" data-name="Tracciato 209" d="M328.884,144c-.005.017-.012.034-.019.05a1.775,1.775,0,0,1-1.911,1.225h-2.986a.886.886,0,0,1-.458-.042.948.948,0,0,1-.632-1.112,1.024,1.024,0,0,1,1.027-.793c.848-.007,1.7,0,2.544,0,.272,0,.566,0,.566-.392s-.283-.4-.566-.405c-.5-.005-1,.006-1.507-.005a2.247,2.247,0,0,1-2.2-2.286,2.316,2.316,0,0,1,2.206-2.355c.91-.021,1.821-.011,2.732-.005a.958.958,0,0,1,1.017.943.993.993,0,0,1-.961,1.025h-.038c-.8.018-1.6.008-2.4,0-.3,0-.616.013-.623.4s.3.466.628.459.66.03.988-.007a2.465,2.465,0,0,1,1.819.445,2.429,2.429,0,0,1,.933,1.74,1.943,1.943,0,0,1-.155,1.12" transform="translate(-175.427 -74.942)" fill="#201c1a"/>
    <path id="Tracciato_210" data-name="Tracciato 210" d="M309.2,145.162a3.642,3.642,0,0,0,2.693-3.628q.009-1.247,0-2.494a1.011,1.011,0,1,0-2-.013v2.544a1.686,1.686,0,0,1-1.7,1.757,1.709,1.709,0,0,1-1.7-1.764c-.009-.848.008-1.7-.006-2.544a1.023,1.023,0,1,0-2.032.03c-.009.878-.014,1.757,0,2.638a3.761,3.761,0,0,0,2.486,3.442,1.676,1.676,0,0,0,.2.05,3.531,3.531,0,0,0,2.063-.018" transform="translate(-165.486 -74.947)" fill="#201c1a"/>
    <path id="Tracciato_211" data-name="Tracciato 211" d="M298.167,142.428a.939.939,0,0,0,.513-1.032,1,1,0,0,0-.885-.8c-.668-.112-.8-.265-.8-.962v-5.6c0-.729-.424-1.235-1.01-1.232a1.111,1.111,0,0,0-1.036,1.225c-.006,1.9-.016,3.8,0,5.7a2.73,2.73,0,0,0,1.824,2.7,3,3,0,0,0,1.4,0" transform="translate(-160.314 -72.188)" fill="#201c1a"/>
    <path id="Tracciato_212" data-name="Tracciato 212" d="M27.606,96.5c0,1.994-.057,3.99.018,5.981a3.126,3.126,0,0,1-6.252.005q-.018-5.723,0-11.446a2.107,2.107,0,0,0-1.131-2.02,2.261,2.261,0,0,0-2.372.094,1.975,1.975,0,0,0-.936,1.834q.01,5.722,0,11.445a3.116,3.116,0,0,1-2.143,3.008,3.152,3.152,0,0,1-4.128-2.948c.094-3.768.028-7.537.026-11.306a2.236,2.236,0,0,0-1.662-2.334A2.194,2.194,0,0,0,6.349,90.38a2.151,2.151,0,0,0-.063.352c-.018.2-.016.408-.017.612v11.163a3.068,3.068,0,0,1-2.889,3.03,3.133,3.133,0,0,1-3.354-2.584,5.717,5.717,0,0,1-.02-.848V91.035a8.336,8.336,0,0,1,6.751-8.353,8.082,8.082,0,0,1,6.655,1.387.524.524,0,0,0,.754.007,8.372,8.372,0,0,1,13.44,6.914Z" transform="translate(0 -44.833)" fill="#2c782e"/>
    <path id="Tracciato_213" data-name="Tracciato 213" d="M141.068,97.8c0,1.555.008,3.109,0,4.662a2.943,2.943,0,0,1-1.878,2.846,3.033,3.033,0,0,1-3.41-.589,2.851,2.851,0,0,1-.914-2.282c0-2.795.01-5.588,0-8.385a5.2,5.2,0,0,0-3.385-4.961,5.35,5.35,0,0,0-5.874,1.329,5.022,5.022,0,0,0-1.35,3.6c.018,2.747.009,5.494,0,8.24a3.215,3.215,0,0,1-2.355,3.2,3.139,3.139,0,0,1-3.957-2.931c.068-2.808,0-5.619.021-8.428a11.595,11.595,0,0,1,22.851-2.779,10.582,10.582,0,0,1,.254,2.52c-.006,1.319,0,2.638,0,3.957Z" transform="translate(-64.109 -44.852)" fill="#2c782e"/>
    <path id="Tracciato_214" data-name="Tracciato 214" d="M87.025,90.189c0,1.334.013,2.669,0,4a11.585,11.585,0,0,1-22.853,2.5,7.746,7.746,0,0,1-.235-1.722c-.01-3.139-.024-6.279,0-9.421a3.088,3.088,0,0,1,2.913-3.015,3.131,3.131,0,0,1,3.3,3.073c.024,2.826,0,5.653.011,8.479a5.348,5.348,0,0,0,5.364,5.3,5.157,5.157,0,0,0,5.228-5.214c-.047-2.761-.015-5.526-.009-8.291a3.265,3.265,0,0,1,2.384-3.274,3.192,3.192,0,0,1,3.9,2.967c.014,1.539,0,3.078,0,4.616" transform="translate(-34.746 -44.851)" fill="#2c782e"/>
    <path id="Tracciato_215" data-name="Tracciato 215" d="M215.006,42.876a4.822,4.822,0,0,0-1.735-1.233,3.8,3.8,0,0,0-4.159.963c-.094.094-.209.181-.315.27a65.884,65.884,0,0,1,.1-6.634,11.5,11.5,0,0,1,20.271-5.911,10.372,10.372,0,0,1,2.515,6.829q.014,4.357,0,8.714a2.929,2.929,0,0,1-1.845,2.865,3,3,0,0,1-3.4-.588,2.653,2.653,0,0,1-.885-2.1q.011-4.145,0-8.291a5.267,5.267,0,0,0-4.535-5.4,5.2,5.2,0,0,0-6,5q-.013,2.758-.017,5.512" transform="translate(-113.473 -14.235)" fill="#201c1a"/>
    <path id="Tracciato_216" data-name="Tracciato 216" d="M304.745,97.134a8.457,8.457,0,0,1-8.581-8.592V70.171a3.216,3.216,0,0,1,3.247-3.4,1.878,1.878,0,0,0,.23-.039A3.234,3.234,0,0,1,302,68.343a3.689,3.689,0,0,1,.471,1.79V88.645A2.213,2.213,0,0,0,304.625,91a3.062,3.062,0,0,1,3.166,3,2.913,2.913,0,0,1-1.649,2.708,3.281,3.281,0,0,0-.565.335h.461" transform="translate(-160.981 -36.271)" fill="#2c782e"/>
    <path id="Tracciato_217" data-name="Tracciato 217" d="M127.883,23.636V14.264a3.163,3.163,0,1,1,6.3.012q.008,8.643,0,17.284c0,.424-.007.848,0,1.272a2.167,2.167,0,0,0,2.248,2.261,3.161,3.161,0,0,1,2.952,2.216A3.124,3.124,0,0,1,136.5,41.2a8.386,8.386,0,0,1-8.607-8.143c-.047-3.139-.009-6.278-.009-9.421Z" transform="translate(-69.505 -5.894)" fill="#201c1a"/>
    <path id="Tracciato_218" data-name="Tracciato 218" d="M233.159,69.662a3.072,3.072,0,1,1-6.143-.1,3.138,3.138,0,0,1,3.159-3.025,3.07,3.07,0,0,1,2.984,3.127" transform="translate(-123.396 -36.165)" fill="#2c782e"/>
    <path id="Tracciato_219" data-name="Tracciato 219" d="M67.867,17.819a1.059,1.059,0,0,1-1.041,1.052,1.02,1.02,0,0,1-1.037-1c0-.014,0-.027,0-.041A1.036,1.036,0,0,1,66.8,16.769h.016a1.07,1.07,0,0,1,1.048,1.05" transform="translate(-35.76 -9.115)" fill="#201c1a"/>
    <path id="Tracciato_220" data-name="Tracciato 220" d="M87.392,17.76a1.048,1.048,0,0,1,1.058-.983,1.052,1.052,0,1,1-.094,2.1,1.042,1.042,0,0,1-.964-1.116v0" transform="translate(-47.501 -9.119)" fill="#201c1a"/>
    <path id="Tracciato_221" data-name="Tracciato 221" d="M111.877,17.843a1.025,1.025,0,0,1-1.023,1.027h-.031A1.07,1.07,0,0,1,109.8,17.8a1.094,1.094,0,0,1,1.069-1.036,1.048,1.048,0,0,1,1.013,1.077" transform="translate(-59.68 -9.113)" fill="#201c1a"/>
    <path id="Tracciato_222" data-name="Tracciato 222" d="M263.264,145.182a3.709,3.709,0,1,0-4.626-3.93,3.665,3.665,0,0,0,2.7,3.911,4.709,4.709,0,0,0,1.925.019m-.986-1.846a1.769,1.769,0,0,1-1.648-1.779,1.729,1.729,0,0,1,1.736-1.675,1.728,1.728,0,1,1-.089,3.454Z" transform="translate(-140.568 -74.947)" fill="#201c1a"/>
    <path id="Tracciato_223" data-name="Tracciato 223" d="M283.438,145.2a1.286,1.286,0,0,0,.652-1.389c-.047-.592-.005-1.19-.01-1.785a5.919,5.919,0,0,0-.074-1.4,3.706,3.706,0,0,0-4.137-2.762,3.658,3.658,0,0,0-3.178,3.473c-.03.782.023,1.569-.026,2.349a1.51,1.51,0,0,0,.554,1.487,1.53,1.53,0,0,0,.81.013,1.317,1.317,0,0,0,.669-1.419c-.055-.733-.017-1.473-.01-2.21a1.7,1.7,0,1,1,3.4,0c.01.721.039,1.445-.008,2.167a1.424,1.424,0,0,0,.7,1.525,1.046,1.046,0,0,0,.657-.041" transform="translate(-150.378 -74.921)" fill="#201c1a"/>
    <path id="Tracciato_224" data-name="Tracciato 224" d="M194.926,68.746q0-3.957-.011-7.914a1.378,1.378,0,0,0-.35-.492,3.837,3.837,0,0,0-3.9-.93,3.194,3.194,0,0,0-1.96,1.422c-.006.156-.018.313-.018.471v9.371c0,.334.016.479-.408.287a11.068,11.068,0,0,0-10.182.254,11.244,11.244,0,0,0-4.574,16.036c2.565,4.073,6.34,6.091,11.184,5.564a11.725,11.725,0,0,0,10.225-11.687c-.055-4.128-.006-8.256-.008-12.382M183.39,86.725a5.325,5.325,0,1,1,.027-10.65,5.323,5.323,0,0,1,5.271,5.334,5.489,5.489,0,0,1-5.3,5.317" transform="translate(-93.382 -32.19)" fill="#2c782e"/>
    <path id="Tracciato_225" data-name="Tracciato 225" d="M266.818,97.941v-3.72a11.9,11.9,0,0,0-.263-2.664,11.551,11.551,0,1,0-5.822,12.635.331.331,0,0,1,.5.094A3.017,3.017,0,0,0,264.7,105.4a3.146,3.146,0,0,0,2.112-3.08c.008-1.462,0-2.917,0-4.376m-11.553,1.427a5.52,5.52,0,0,1-5.319-5.355,5.315,5.315,0,0,1,10.63.015,5.3,5.3,0,0,1-5.266,5.34h-.044Z" transform="translate(-132.465 -44.839)" fill="#2c782e"/>
    <path id="Tracciato_226" data-name="Tracciato 226" d="M233.124,85.4a3.034,3.034,0,0,0-3.051-2.856,3.128,3.128,0,0,0-3.063,2.981q-.023,8.524,0,17.053a3.014,3.014,0,0,0,3.428,2.982,2.925,2.925,0,0,0,2.708-3.109c.019-2.747.005-5.495.005-8.242V87.422c0-.676.027-1.355-.028-2.026" transform="translate(-123.386 -44.864)" fill="#2c782e"/>
    <path id="Tracciato_227" data-name="Tracciato 227" d="M29.541,18.186a11.531,11.531,0,0,0-3.527,1.121c-.007-.139-.012-.2-.012-.264,0-1.805.012-3.61-.012-5.415a3.17,3.17,0,0,0-3.369-2.947,3.212,3.212,0,0,0-2.855,3.078V29.533A10.74,10.74,0,0,0,20.99,34.55,11.8,11.8,0,0,0,32.716,41.02a11.53,11.53,0,1,0-3.175-22.834M31.354,34.9A5.444,5.444,0,0,1,26,29.564a5.539,5.539,0,0,1,5.344-5.322A5.33,5.33,0,0,1,31.354,34.9" transform="translate(-10.743 -5.802)" fill="#201c1a"/>
    <path id="Tracciato_228" data-name="Tracciato 228" d="M96.957,38.344a10.764,10.764,0,0,0-.132-1.829,11.54,11.54,0,1,0-5.973,11.966c.272-.147.386-.084.565.141a2.982,2.982,0,0,0,3.392,1.069,3.14,3.14,0,0,0,2.144-3.008V42.209c0-1.289,0-2.578,0-3.865M85.392,43.657a5.532,5.532,0,0,1-5.3-5.371,5.314,5.314,0,0,1,10.628.042,5.317,5.317,0,0,1-5.3,5.329h-.02" transform="translate(-40.153 -14.556)" fill="#201c1a"/>
    <path id="Tracciato_229" data-name="Tracciato 229" d="M307.329,53.8a3.2,3.2,0,0,0,.083,1.659,1.794,1.794,0,0,0-.083-1.659" transform="translate(-167.018 -29.245)" fill="#dad8d9"/>
    <path id="Tracciato_230" data-name="Tracciato 230" d="M317.835,59.015c-.4-.308-.8-.61-1.182-.932-.124-.1-.289-.216-.24-.425a7.574,7.574,0,0,0,.052-1.642c0-.173-.012-.33.189-.435.271-.137.206-.316-.016-.445a1.2,1.2,0,0,1-.541-1.065,18.366,18.366,0,0,0-1.239-4.748,20.331,20.331,0,0,0-1.947-4,9.259,9.259,0,0,1-.579-.894,18.515,18.515,0,0,0-2.463-3.467,1.108,1.108,0,0,1,.219-1.64.217.217,0,0,0,.12-.221v-.754c0-.179-.075-.278-.252-.246-.395.069-.377-.189-.383-.448a33.885,33.885,0,0,0-.05-3.622c-.01-.087-.058-.214.043-.258.347-.15.1-.283-.014-.389a5.641,5.641,0,0,1-1.565-2.871c-.047-.18-.109-.323.094-.491a.3.3,0,0,0-.067-.526c-.163-.073-.177-.182-.183-.333-.021-.517-.058-1.036-.085-1.551a.778.778,0,0,1,.165-.6c.268-.32.125-.6-.292-.613-.2-.008-.275-.061-.283-.266-.014-.423-.079-.848-.075-1.268,0-.4-.094-.835.273-1.185a.293.293,0,0,0-.143-.488.256.256,0,0,1-.2-.358,3.421,3.421,0,0,0-.027-1.836c-.264-2.421-.253-4.857-.355-7.287-.008-.175-.04-.331.173-.471.157-.1.188-.445-.05-.5-.348-.077-.257-.29-.261-.49-.017-.878-.074-1.759-.032-2.638.071-1.439-.508-2.827-.295-4.271a.254.254,0,0,0-.166-.265c-.116-.036-.189.094-.263.163-.094.089-.08.2.051.264.2.1.113.264.1.414a60.825,60.825,0,0,0-.318,6.3c0,.21.1.45-.22.582-.125.051-.136.366.024.441.237.112.2.283.2.459.061,2.387-.215,4.765-.21,7.151,0,.618-.3,1.235.1,1.846a.335.335,0,0,1-.168.532c-.323.1-.4.33-.159.566a1.079,1.079,0,0,1,.288.624,7.08,7.08,0,0,1-.087,1.779c-.008.157-.112.21-.261.195-.5-.052-.393.265-.307.539.052.173.2.3.188.513-.021.58,0,1.162-.009,1.742,0,.113.052.256-.124.312-.416.134-.236.377-.073.565.14.161.223.329.131.506-.446.875-.45,1.97-1.3,2.643.048.189.22.214.366.249a3.209,3.209,0,0,1,2.326,3.17V54.934a3.064,3.064,0,0,0,.194,1.247,2.359,2.359,0,0,0,2.228,1.453,2.908,2.908,0,0,1,2.875,2.7,2.788,2.788,0,0,1-1.571,2.732c-.134.077-.291.128-.414.216a.318.318,0,0,0-.135.3c0,.013.005.021.018.021,2.589.015,5.234-.04,7.82-.056a.3.3,0,0,0,.3-.283,1.369,1.369,0,0,0-.028-.368,15.016,15.016,0,0,1-.182-3.081c0-.195-.012-.377.232-.442.324-.077.238-.217.05-.363M307.521,29l-.1.005V27.284l.1-.005Zm1.366,6.666q.048-.765.1-1.529a.2.2,0,0,1,.184.221v1.319c0,.113-.01.23-.173.206-.13-.02-.112-.126-.112-.217Zm-.493-.142c.02-.463.066-.925.1-1.394.241.072.188.249.188.394.005.327.012.655,0,.981-.007.132.1.361-.136.377-.258.007-.161-.232-.156-.357m.126,2.534c-.247-.005-.065-.385-.065-.594,0-.371.028-.742.044-1.114h.141a3.328,3.328,0,0,1,.033,1.114c-.012.205.212.6-.152.594m.506.035c-.2.006-.166-.157-.158-.272.029-.5.07-.991.106-1.49.182.051.2.166.2.3v1.177c0,.109.058.279-.144.284" transform="translate(-165.11 -2.754)" fill="#201c1a"/>
    <path id="Tracciato_231" data-name="Tracciato 231" d="M99.849,0H99.19a1.343,1.343,0,0,0-.677,1.378c.042.429.009.866.009,1.344-.2-.073-.343-.129-.487-.179a3.77,3.77,0,0,0-4.952,3.542A3.835,3.835,0,0,0,96.82,9.766a3.772,3.772,0,0,0,3.7-3.7c.01-1.584-.019-3.169.013-4.751A1.308,1.308,0,0,0,99.849,0M96.816,7.741a1.687,1.687,0,0,1-1.7-1.671V6.053a1.7,1.7,0,1,1,1.721,1.687h-.017" transform="translate(-50.595)" fill="#201c1a"/>
    <path id="Tracciato_232" data-name="Tracciato 232" d="M55.091,9.945a10.141,10.141,0,0,0-.106-2.037,3.711,3.711,0,0,0-4.145-2.761,3.793,3.793,0,0,0-3.188,3.794,3.749,3.749,0,0,0,5.215,3.283c.207-.087.364-.173.576.043a.886.886,0,0,0,1.085.155.953.953,0,0,0,.565-.948c-.009-.471,0-.941,0-1.529m-3.689.574A1.7,1.7,0,0,1,49.7,8.832V8.823a1.717,1.717,0,0,1,1.7-1.71,1.789,1.789,0,0,1,1.7,1.7,1.7,1.7,0,0,1-1.682,1.71H51.4" transform="translate(-25.9 -2.778)" fill="#201c1a"/>
    <path id="Tracciato_233" data-name="Tracciato 233" d="M76.253,7.872c-.533-.013-1.068,0-1.6-.006-.288,0-.557-.094-.565-.433-.01-.361.266-.415.555-.415.785,0,1.57.008,2.356,0a1.037,1.037,0,0,0,1.121-.969.994.994,0,0,0-1.051-1.028,21.184,21.184,0,0,0-2.963.046,2.307,2.307,0,0,0-1.939,2.495,2.248,2.248,0,0,0,2.167,2.129c.534.009,1.068,0,1.6,0,.288,0,.5.088.493.423s-.257.341-.5.341c-.848,0-1.7-.007-2.544,0a1.03,1.03,0,0,0-1.11,1.028.976.976,0,0,0,1.075.992c.439.015.879,0,1.42,0,.479-.015,1.058.022,1.638-.044a2.285,2.285,0,0,0-.153-4.559" transform="translate(-39.224 -2.713)" fill="#201c1a"/>
    <path id="Tracciato_234" data-name="Tracciato 234" d="M163.816,23.721a12.161,12.161,0,1,1-12.162,12.162,12.162,12.162,0,0,1,12.162-12.162" transform="translate(-82.432 -12.894)" fill="#fff"/>
  </g>
</svg>
