<svg xmlns="http://www.w3.org/2000/svg" xmlns:xlink="http://www.w3.org/1999/xlink" width="1940" height="1073" viewBox="0 0 1940 1073">
  <defs>
    <clipPath id="clip-path">
      <rect id="Rettangolo_41" data-name="Rettangolo 41" width="1940" height="1073" transform="translate(-20 -30)" fill="#fff"/>
    </clipPath>
    <clipPath id="clip-path-2">
      <rect id="Rettangolo_39" data-name="Rettangolo 39" width="3157.189" height="3051.549" fill="none"/>
    </clipPath>
  </defs>
  <g id="Gruppo_di_maschere_5" data-name="Gruppo di maschere 5" transform="translate(20 30)" clip-path="url(#clip-path)">
    <g id="Raggruppa_42" data-name="Raggruppa 42" transform="translate(-1028.426 -1411.595)">
      <g id="Raggruppa_39" data-name="Raggruppa 39" transform="translate(409.831 457.043)">
        <g id="Raggruppa_38" data-name="Raggruppa 38" clip-path="url(#clip-path-2)">
          <path id="Tracciato_145" data-name="Tracciato 145" d="M2494.469,4988.946C1119.013,4988.946,0,3869.927,0,2494.47S1119.013,0,2494.469,0,4988.938,1119.014,4988.938,2494.47,3869.924,4988.946,2494.469,4988.946" transform="translate(-932.737 -1040.186)" fill="#ffe300"/>
          <path id="Tracciato_146" data-name="Tracciato 146" d="M2444.246,4849.138C1118.19,4849.138,39.362,3770.31,39.362,2444.249S1118.19,39.364,2444.246,39.364,4849.132,1118.192,4849.132,2444.249,3770.3,4849.138,2444.246,4849.138" transform="translate(-882.515 -989.962)" fill="#ffc300"/>
          <path id="Tracciato_147" data-name="Tracciato 147" d="M2394.023,4709.329c-1276.663,0-2315.3-1038.641-2315.3-2315.3s1038.635-2315.3,2315.3-2315.3,2315.3,1038.637,2315.3,2315.3-1038.635,2315.3-2315.3,2315.3" transform="translate(-832.291 -939.74)" fill="#ffd400"/>
          <path id="Tracciato_148" data-name="Tracciato 148" d="M2339.667,4566.764c-1227.262,0-2225.714-998.451-2225.714-2225.718S1112.4,115.333,2339.667,115.333,4565.38,1113.785,4565.38,2341.047,3566.929,4566.764,2339.667,4566.764" transform="translate(-787.344 -893.033)" fill="#ffe300"/>
          <path id="Tracciato_149" data-name="Tracciato 149" d="M2293.577,4429.713c-1177.868,0-2136.127-958.267-2136.127-2136.135S1115.709,157.451,2293.577,157.451,4429.7,1115.712,4429.7,2293.578,3471.443,4429.713,2293.577,4429.713" transform="translate(-731.846 -839.294)" fill="#ffc300"/>
          <path id="Tracciato_150" data-name="Tracciato 150" d="M2243.355,4289.9c-1128.468,0-2046.543-918.076-2046.543-2046.548S1114.888,196.814,2243.355,196.814,4289.9,1114.89,4289.9,2243.357,3371.822,4289.9,2243.355,4289.9" transform="translate(-681.623 -789.071)" fill="#ffd400"/>
          <path id="Tracciato_151" data-name="Tracciato 151" d="M2193.131,4150.1c-1079.073,0-1956.956-877.891-1956.956-1956.964S1114.058,236.176,2193.131,236.176s1956.957,877.885,1956.957,1956.957S3272.2,4150.1,2193.131,4150.1" transform="translate(-631.4 -738.849)" fill="#ffe300"/>
          <path id="Tracciato_152" data-name="Tracciato 152" d="M2142.909,4010.287c-1029.673,0-1867.372-837.7-1867.372-1867.375s837.7-1867.375,1867.372-1867.375,1867.372,837.7,1867.372,1867.375-837.7,1867.375-1867.372,1867.375" transform="translate(-581.178 -688.626)" fill="#ffc300"/>
          <path id="Tracciato_153" data-name="Tracciato 153" d="M2092.686,3870.479c-980.272,0-1777.786-797.514-1777.786-1777.793S1112.414,314.9,2092.686,314.9s1777.786,797.514,1777.786,1777.786S3072.958,3870.479,2092.686,3870.479" transform="translate(-530.954 -638.403)" fill="#ffd400"/>
          <path id="Tracciato_154" data-name="Tracciato 154" d="M2042.463,3730.669c-930.877,0-1688.2-757.328-1688.2-1688.2s757.324-1688.2,1688.2-1688.2,1688.2,757.324,1688.2,1688.2-757.324,1688.2-1688.2,1688.2" transform="translate(-480.732 -588.179)" fill="#ffe300"/>
          <path id="Tracciato_155" data-name="Tracciato 155" d="M1992.24,3590.863c-881.477,0-1598.615-717.138-1598.615-1598.622S1110.763,393.626,1992.24,393.626s1598.615,717.138,1598.615,1598.615S2873.717,3590.863,1992.24,3590.863" transform="translate(-430.508 -537.957)" fill="#ffc300"/>
          <path id="Tracciato_156" data-name="Tracciato 156" d="M1942.018,3451.053c-832.083,0-1509.031-676.953-1509.031-1509.033S1109.935,432.989,1942.018,432.989,3451.049,1109.937,3451.049,1942.02,2774.1,3451.053,1942.018,3451.053" transform="translate(-380.286 -487.734)" fill="#ffd400"/>
          <path id="Tracciato_157" data-name="Tracciato 157" d="M1891.794,3311.246c-782.682,0-1419.444-636.762-1419.444-1419.45S1109.112,472.351,1891.794,472.351,3311.239,1109.113,3311.239,1891.8s-636.762,1419.45-1419.444,1419.45" transform="translate(-330.063 -437.511)" fill="#ffe300"/>
          <path id="Tracciato_158" data-name="Tracciato 158" d="M1841.572,3171.437c-733.288,0-1329.86-596.577-1329.86-1329.863s596.572-1329.86,1329.86-1329.86,1329.86,596.572,1329.86,1329.86S2574.86,3171.437,1841.572,3171.437" transform="translate(-279.84 -387.288)" fill="#ffc300"/>
          <path id="Tracciato_159" data-name="Tracciato 159" d="M1791.349,3031.63c-683.887,0-1240.274-556.386-1240.274-1240.281S1107.462,551.076,1791.349,551.076s1240.273,556.386,1240.273,1240.273S2475.236,3031.63,1791.349,3031.63" transform="translate(-229.617 -337.066)" fill="#ffd400"/>
          <path id="Tracciato_160" data-name="Tracciato 160" d="M1741.126,2891.819c-634.493,0-1150.689-516.2-1150.689-1150.689s516.2-1150.692,1150.689-1150.692,1150.69,516.2,1150.69,1150.692-516.2,1150.689-1150.69,1150.689" transform="translate(-179.395 -286.843)" fill="#ffe300"/>
          <path id="Tracciato_161" data-name="Tracciato 161" d="M1691.585,2753.908c-585.766,0-1062.32-476.554-1062.32-1062.32s476.554-1062.32,1062.32-1062.32,1062.321,476.554,1062.321,1062.32-476.554,1062.32-1062.321,1062.32" transform="translate(-129.854 -237.301)" fill="#ffc300"/>
          <path id="Tracciato_162" data-name="Tracciato 162" d="M1640.36,2611.31c-535.382,0-970.947-435.565-970.947-970.947s435.565-970.947,970.947-970.947,970.947,435.565,970.947,970.947S2175.742,2611.31,1640.36,2611.31" transform="translate(-78.629 -186.076)" fill="#ffd400"/>
          <path id="Tracciato_163" data-name="Tracciato 163" d="M1579.377,2441.548c-475.4,0-862.168-386.768-862.168-862.168s386.765-862.17,862.168-862.17,862.168,386.768,862.168,862.17-386.766,862.168-862.168,862.168" transform="translate(-17.646 -125.094)" fill="#ffe300"/>
          <path id="Tracciato_164" data-name="Tracciato 164" d="M1488.145,2187.576c-385.666,0-699.432-313.763-699.432-699.429s313.766-699.432,699.432-699.432,699.43,313.763,699.43,699.432-313.764,699.429-699.43,699.429" transform="translate(73.587 -33.861)" fill="#ffc300"/>
        </g>
      </g>
    </g>
  </g>
</svg>
