<svg id="Raggruppa_49" data-name="Raggruppa 49" xmlns="http://www.w3.org/2000/svg" xmlns:xlink="http://www.w3.org/1999/xlink" width="251.106" height="56.687" viewBox="0 0 251.106 56.687">
  <defs>
    <clipPath id="clip-path">
      <rect id="Rettangolo_48" data-name="Rettangolo 48" width="251.106" height="56.687" fill="none"/>
    </clipPath>
  </defs>
  <g id="Raggruppa_48" data-name="Raggruppa 48" clip-path="url(#clip-path)">
    <path id="Tracciato_167" data-name="Tracciato 167" d="M409.609,29.305c-2.634,0-4.349,2.3-4.138,6.984l7.859-1.255c0-3.971-1.3-5.729-3.721-5.729m9.784,8.195-13.505,1.925c.46,3.3,2.133,4.933,5.436,4.933a13.027,13.027,0,0,0,5.853-1.214l1.5,4.057a17.4,17.4,0,0,1-8.11,1.63c-6.9,0-10.872-4.556-10.872-11.747,0-7.067,3.68-11.625,10.161-11.625s9.573,4.347,9.573,11.122c0,.293-.042.628-.042.919" transform="translate(-217.259 -13.838)" fill="#065722"/>
    <path id="Tracciato_168" data-name="Tracciato 168" d="M523.49,48.914a12.659,12.659,0,0,1-6.606-1.63l1.672-4.14a6.846,6.846,0,0,0,4.015,1.294,2.537,2.537,0,0,0,2.8-2.464c0-1.507-.793-2.345-2.883-3.178-4.141-1.63-5.059-3.931-5.059-6.272,0-3.846,3.009-6.941,7.525-6.941a11.541,11.541,0,0,1,6.481,1.631l-1.588,3.72a5.753,5.753,0,0,0-3.43-1.168,2.312,2.312,0,0,0-2.591,2.341c0,1.505,1.127,2.341,2.886,3.094,4.346,1.838,5.349,3.971,5.349,6.607,0,3.93-3.22,7.106-8.571,7.106" transform="translate(-280.955 -13.906)" fill="#065722"/>
    <path id="Tracciato_169" data-name="Tracciato 169" d="M448.931,10.465V37.075h6.52V4.538s-6.52-.019-6.52,5.927" transform="translate(-244.019 -2.467)" fill="#065722"/>
    <path id="Tracciato_170" data-name="Tracciato 170" d="M482.425,33.184a4.37,4.37,0,0,1-2.009.334c-3.3,0-4.765-2.8-4.765-7.692,0-4.642,1.378-7.737,4.974-7.737a6.065,6.065,0,0,1,1.8.251Zm0-22.418v4.063a13.89,13.89,0,0,0-3.3-.375c-5.813,0-9.911,4.43-9.911,11.664,0,7.525,4.266,11.539,11.081,11.539,3.888,0,6.564-.586,8.612-1.673V4.849c-.424,0-6.472.189-6.479,5.917" transform="translate(-255.042 -2.636)" fill="#065722"/>
    <path id="Tracciato_171" data-name="Tracciato 171" d="M125.751,16.058s-6.521-.018-6.521,5.927l-.005,10.5a7.275,7.275,0,0,1-2.854.474c-4.228,0-8.862-3.964-8.877-11.982.041-8.493,4.58-12.042,9.959-12.077a10.6,10.6,0,0,1,5.376,1.162l.416.247,2.176-4.476-.353-.208a17.653,17.653,0,0,0-19.658,2.651,16.94,16.94,0,0,0-4.873,12.419c0,5.528,1.776,9.869,4.693,12.813a15.717,15.717,0,0,0,11.376,4.48h.052c4.289,0,6.744-.675,8.832-1.893l.22-.131V35.7h.042Z" transform="translate(-54.647 -2.05)" fill="#065722"/>
    <path id="Tracciato_172" data-name="Tracciato 172" d="M174.965,29.914a5.678,5.678,0,0,0-4.38-.125V48.322h-6.571V26.883c2.527-1.222,6.066-1.9,12.174-1.6Z" transform="translate(-89.15 -13.705)" fill="#065722"/>
    <path id="Tracciato_173" data-name="Tracciato 173" d="M199.924,29.053c-2.653,0-4.38,2.317-4.17,7.035l7.919-1.264c0-4-1.305-5.771-3.749-5.771m9.857,8.257-13.606,1.938c.463,3.327,2.149,4.97,5.477,4.97a13.146,13.146,0,0,0,5.9-1.221l1.515,4.087a17.536,17.536,0,0,1-8.171,1.642c-6.951,0-10.953-4.591-10.953-11.837,0-7.118,3.706-11.711,10.235-11.711s9.646,4.382,9.646,11.206c0,.294-.042.631-.042.927" transform="translate(-103.243 -13.685)" fill="#065722"/>
    <path id="Tracciato_174" data-name="Tracciato 174" d="M247.173,29.053c-2.654,0-4.381,2.317-4.171,7.035l7.92-1.264c0-4-1.305-5.771-3.749-5.771m9.857,8.257-13.606,1.938c.462,3.327,2.148,4.97,5.475,4.97A13.147,13.147,0,0,0,254.8,43l1.515,4.087a17.536,17.536,0,0,1-8.171,1.642c-6.951,0-10.952-4.591-10.952-11.837,0-7.118,3.706-11.711,10.235-11.711s9.647,4.382,9.647,11.206c0,.294-.043.631-.043.927" transform="translate(-128.926 -13.685)" fill="#065722"/>
    <path id="Tracciato_175" data-name="Tracciato 175" d="M298.914,48.3V32.423c0-1.6-.716-3.16-3.369-3.16a7.715,7.715,0,0,0-2.78.465V48.3h-6.571V26.863a23.768,23.768,0,0,1,9.519-1.686c7.2,0,9.773,3.076,9.773,7.2V48.3Z" transform="translate(-155.562 -13.685)" fill="#065722"/>
    <path id="Tracciato_176" data-name="Tracciato 176" d="M385.545,25.576a17.914,17.914,0,0,0-6.57,1.563V48.514h6.572Z" transform="translate(-205.994 -13.902)" fill="#065722"/>
    <path id="Tracciato_177" data-name="Tracciato 177" d="M343.407,9.333h11.8l2.214-4.8H343.385v.005c-.234,0-6.5.09-6.6,5.926v5.2h-1.693v4.559h1.693V37.048h.029v.026h6.572v-5.4c.013-.178.02-.361.02-.55v-10.9h8.844V15.7h-8.844Z" transform="translate(-182.142 -2.462)" fill="#065722"/>
    <path id="Tracciato_178" data-name="Tracciato 178" d="M37.182,18.589A18.591,18.591,0,1,1,18.591,0a18.591,18.591,0,0,1,18.591,18.59" transform="translate(0 0.001)" fill="#abbe00"/>
    <path id="Tracciato_179" data-name="Tracciato 179" d="M36.969,4.483,36.389,34.5h-2.6Z" transform="translate(-18.367 -2.437)" fill="#84ae9b"/>
    <path id="Tracciato_180" data-name="Tracciato 180" d="M46.8,39.144l4.66-26.113L44.8,37.389l.137,1.755Z" transform="translate(-24.352 -7.083)" fill="#84ae9b"/>
    <path id="Tracciato_181" data-name="Tracciato 181" d="M27.205,38.274,25.029,11.43,25,38.277Z" transform="translate(-13.59 -6.213)" fill="#84ae9b"/>
    <path id="Tracciato_182" data-name="Tracciato 182" d="M10.679,24.549,15.887,45.4H14.032Z" transform="translate(-5.805 -13.344)" fill="#84ae9b"/>
    <path id="Tracciato_183" data-name="Tracciato 183" d="M54.68,42.895l8.05-19.75L56.01,44.65H54.566Z" transform="translate(-29.66 -12.58)" fill="#84ae9b"/>
    <path id="Tracciato_184" data-name="Tracciato 184" d="M40.069,4.513l-.581,30,2.566,0-.141-1.772Z" transform="translate(-21.464 -2.453)" fill="#065722"/>
    <path id="Tracciato_185" data-name="Tracciato 185" d="M49.2,39.176l2.447,0,.1-1.535,2.1-24.554Z" transform="translate(-26.741 -7.115)" fill="#065722"/>
    <path id="Tracciato_186" data-name="Tracciato 186" d="M27.25,38.251h1.809l.172-1.591L25.087,11.382Z" transform="translate(-13.636 -6.187)" fill="#065722"/>
    <path id="Tracciato_187" data-name="Tracciato 187" d="M64.377,23.386,57.7,44.776h1.761L64.4,23.386Z" transform="translate(-31.364 -12.711)" fill="#065722"/>
    <path id="Tracciato_188" data-name="Tracciato 188" d="M17.224,43.893l-6.531-19.3,5.2,20.839h1.332Z" transform="translate(-5.812 -13.367)" fill="#065722"/>
    <path id="Tracciato_189" data-name="Tracciato 189" d="M182.291,103.567l-1.039-3.293H177.48l-1.071,3.293h-1.343l3.725-11h1.31l3.709,11Zm-2.557-8.344a7.574,7.574,0,0,1-.32-1.327h-.032a9.1,9.1,0,0,1-.336,1.327l-1.31,4.172h3.277Z" transform="translate(-95.158 -50.317)" fill="#065722"/>
    <path id="Tracciato_190" data-name="Tracciato 190" d="M209.253,93.561v10.006h-1.471V93.561h-2.19V92.57h5.85v.991Z" transform="translate(-111.751 -50.317)" fill="#065722"/>
    <path id="Tracciato_191" data-name="Tracciato 191" d="M220.986,102.441c.16,1.95,1.071,2.909,2.621,2.909a4.274,4.274,0,0,0,2.126-.5l.368.927a5.216,5.216,0,0,1-2.606.591c-2.253,0-3.836-1.422-3.836-4.491,0-2.925,1.439-4.443,3.469-4.443,2.062,0,3.309,1.343,3.277,4.22Zm2.094-4.092c-1.247,0-2.174,1.007-2.142,3.341l4.124-.624c0-1.95-.751-2.717-1.982-2.717" transform="translate(-119.397 -52.963)" fill="#065722"/>
    <path id="Tracciato_192" data-name="Tracciato 192" d="M243.511,106.213v-6.186c0-.8-.335-1.678-1.806-1.678a3.6,3.6,0,0,0-1.63.3v7.561h-1.407V98.045a7.188,7.188,0,0,1,3.149-.607c2.4,0,3.1,1.326,3.1,2.557v6.218Z" transform="translate(-129.729 -52.963)" fill="#065722"/>
    <path id="Tracciato_193" data-name="Tracciato 193" d="M260.856,103.537c-2.637,0-4.124-2.541-4.124-5.659,0-3.053,1.471-5.658,4.124-5.658a3.526,3.526,0,0,1,2.142.607l-.352.863a2.876,2.876,0,0,0-1.535-.431c-2.11,0-2.845,2.286-2.845,4.619,0,2.382.815,4.556,2.829,4.556A2.727,2.727,0,0,0,262.63,102l.384.927a3.643,3.643,0,0,1-2.158.608" transform="translate(-139.548 -50.127)" fill="#065722"/>
    <path id="Tracciato_194" data-name="Tracciato 194" d="M276.392,106.372c-2.238,0-3.277-.975-3.277-2.541,0-2.286,2.142-2.957,4.811-3.229v-.527c0-1.327-.8-1.711-1.9-1.711a4.811,4.811,0,0,0-2.078.544l-.335-.831a5.687,5.687,0,0,1,2.637-.639c1.6,0,3.005.687,3.005,2.8v5.53a6.042,6.042,0,0,1-2.861.608m1.535-5.051c-2.174.272-3.469.735-3.469,2.478,0,1.247.767,1.758,2.046,1.758a3.132,3.132,0,0,0,1.423-.288Z" transform="translate(-148.453 -52.962)" fill="#065722"/>
    <path id="Tracciato_195" data-name="Tracciato 195" d="M293.328,103.609a2.013,2.013,0,0,1-2.142-2.174V95.793H290.2v-.879h.991V92.931l1.407-.431v2.414h1.5v.879h-1.5v5.61c0,.687.3,1.247,1.087,1.247a1.87,1.87,0,0,0,.416-.064v.9a2.5,2.5,0,0,1-.767.128" transform="translate(-157.737 -50.279)" fill="#065722"/>
    <path id="Tracciato_196" data-name="Tracciato 196" d="M302.795,102.441c.16,1.95,1.071,2.909,2.621,2.909a4.274,4.274,0,0,0,2.126-.5l.368.927a5.216,5.216,0,0,1-2.606.591c-2.253,0-3.836-1.422-3.836-4.491,0-2.925,1.439-4.443,3.469-4.443,2.062,0,3.309,1.343,3.277,4.22Zm2.094-4.092c-1.247,0-2.174,1.007-2.142,3.341l4.124-.624c0-1.95-.751-2.717-1.982-2.717" transform="translate(-163.864 -52.963)" fill="#065722"/>
    <path id="Tracciato_197" data-name="Tracciato 197" d="M334.163,103.537c-2.557,0-4.619-1.854-4.619-5.738,0-3.66,2.11-5.578,4.619-5.578a4.852,4.852,0,0,1,2.573.575l-.431.911a3.827,3.827,0,0,0-1.982-.447c-2.03,0-3.261,1.471-3.261,4.667,0,2.989,1.359,4.588,3.085,4.588a2.77,2.77,0,0,0,1.375-.256V98.134h-1.871v-.927h3.293v5.722a5.117,5.117,0,0,1-2.781.608" transform="translate(-179.125 -50.127)" fill="#065722"/>
    <path id="Tracciato_198" data-name="Tracciato 198" d="M354.1,98.536a2.538,2.538,0,0,0-1.966.16v7.529h-1.407V98.072a6.854,6.854,0,0,1,3.708-.607Z" transform="translate(-190.637 -52.974)" fill="#065722"/>
    <path id="Tracciato_199" data-name="Tracciato 199" d="M363.729,106.372c-2.237,0-3.277-.975-3.277-2.541,0-2.286,2.142-2.957,4.811-3.229v-.527c0-1.327-.8-1.711-1.9-1.711a4.811,4.811,0,0,0-2.078.544l-.336-.831a5.687,5.687,0,0,1,2.637-.639c1.6,0,3.005.687,3.005,2.8v5.53a6.042,6.042,0,0,1-2.861.608m1.535-5.051c-2.174.272-3.469.735-3.469,2.478,0,1.247.767,1.758,2.046,1.758a3.132,3.132,0,0,0,1.423-.288Z" transform="translate(-195.925 -52.962)" fill="#065722"/>
    <path id="Tracciato_200" data-name="Tracciato 200" d="M379.916,106.321a3.818,3.818,0,0,1-2.206-.592l.384-.927a2.707,2.707,0,0,0,1.678.512,1.494,1.494,0,0,0,1.6-1.487c0-.9-.48-1.294-1.423-1.646-1.678-.624-2.014-1.519-2.014-2.414a2.4,2.4,0,0,1,2.573-2.366,3.587,3.587,0,0,1,2.014.592l-.367.847a2.443,2.443,0,0,0-1.439-.479,1.322,1.322,0,0,0-1.439,1.358c0,.831.608,1.231,1.439,1.551,1.678.639,2.094,1.535,2.094,2.526a2.682,2.682,0,0,1-2.893,2.526" transform="translate(-205.306 -52.943)" fill="#065722"/>
    <path id="Tracciato_201" data-name="Tracciato 201" d="M393.709,106.321a3.818,3.818,0,0,1-2.206-.592l.384-.927a2.707,2.707,0,0,0,1.678.512,1.494,1.494,0,0,0,1.6-1.487c0-.9-.48-1.294-1.423-1.646-1.678-.624-2.014-1.519-2.014-2.414A2.4,2.4,0,0,1,394.3,97.4a3.587,3.587,0,0,1,2.014.592l-.367.847a2.443,2.443,0,0,0-1.439-.479,1.322,1.322,0,0,0-1.439,1.358c0,.831.608,1.231,1.439,1.551,1.678.639,2.094,1.535,2.094,2.526a2.682,2.682,0,0,1-2.893,2.526" transform="translate(-212.803 -52.943)" fill="#065722"/>
    <path id="Tracciato_202" data-name="Tracciato 202" d="M419.992,103.537c-2.637,0-4.124-2.541-4.124-5.659,0-3.053,1.471-5.658,4.124-5.658a3.526,3.526,0,0,1,2.142.607l-.352.863a2.876,2.876,0,0,0-1.535-.431c-2.11,0-2.845,2.286-2.845,4.619,0,2.382.815,4.556,2.829,4.556a2.727,2.727,0,0,0,1.535-.432l.384.927a3.643,3.643,0,0,1-2.158.608" transform="translate(-226.047 -50.127)" fill="#065722"/>
    <path id="Tracciato_203" data-name="Tracciato 203" d="M435.237,106.373c-2.35,0-3.373-1.934-3.373-4.46,0-2.573,1.039-4.475,3.357-4.475,2.366,0,3.373,1.9,3.373,4.475,0,2.526-1.023,4.46-3.357,4.46m0-8.04c-1.646,0-1.966,1.838-1.966,3.58s.351,3.485,1.966,3.485c1.646,0,1.95-1.758,1.95-3.485s-.3-3.58-1.95-3.58" transform="translate(-234.742 -52.963)" fill="#065722"/>
    <path id="Tracciato_204" data-name="Tracciato 204" d="M460.525,106.213v-6.2a1.5,1.5,0,0,0-1.662-1.646,2.281,2.281,0,0,0-1.774.767v7.081h-1.407V99.948c0-.959-.639-1.6-1.886-1.6a3.582,3.582,0,0,0-1.551.288v7.577h-1.406V98.045a6.281,6.281,0,0,1,2.989-.607,3.112,3.112,0,0,1,2.637,1.039,3.539,3.539,0,0,1,2.669-1.039,2.492,2.492,0,0,1,2.8,2.541v6.234Z" transform="translate(-245.056 -52.963)" fill="#065722"/>
    <path id="Tracciato_205" data-name="Tracciato 205" d="M482.838,106.341a4.469,4.469,0,0,1-1.342-.208v3.516h-1.391v-11.6a5.317,5.317,0,0,1,2.685-.608c2.43,0,3.8,1.694,3.8,4.332,0,2.861-1.487,4.572-3.757,4.572m-.112-8.056a2.952,2.952,0,0,0-1.231.24v6.761a2.763,2.763,0,0,0,1.055.192c1.742,0,2.637-1.359,2.637-3.645,0-2.19-.639-3.548-2.462-3.548" transform="translate(-260.963 -52.963)" fill="#065722"/>
    <path id="Tracciato_206" data-name="Tracciato 206" d="M500.885,106.372c-2.237,0-3.277-.975-3.277-2.541,0-2.286,2.142-2.957,4.811-3.229v-.527c0-1.327-.8-1.711-1.9-1.711a4.811,4.811,0,0,0-2.078.544l-.335-.831a5.687,5.687,0,0,1,2.637-.639c1.6,0,3.005.687,3.005,2.8v5.53a6.042,6.042,0,0,1-2.861.608m1.535-5.051c-2.174.272-3.469.735-3.469,2.478,0,1.247.767,1.758,2.046,1.758a3.132,3.132,0,0,0,1.423-.288Z" transform="translate(-270.477 -52.962)" fill="#065722"/>
    <path id="Tracciato_207" data-name="Tracciato 207" d="M520.866,106.213v-6.186c0-.8-.335-1.678-1.806-1.678a3.6,3.6,0,0,0-1.63.3v7.561h-1.407V98.045a7.188,7.188,0,0,1,3.149-.607c2.4,0,3.1,1.326,3.1,2.557v6.218Z" transform="translate(-280.487 -52.963)" fill="#065722"/>
    <path id="Tracciato_208" data-name="Tracciato 208" d="M535.955,109.84h-1.519l1.439-3.437L533,97.788h1.5l1.774,6.186a5.52,5.52,0,0,1,.208,1.1h.032a6.441,6.441,0,0,1,.224-1.1l1.87-6.186h1.311Z" transform="translate(-289.714 -53.153)" fill="#065722"/>
  </g>
</svg>
