<svg xmlns="http://www.w3.org/2000/svg" xmlns:xlink="http://www.w3.org/1999/xlink" width="119.483" height="96.149" viewBox="0 0 119.483 96.149">
  <defs>
    <clipPath id="clip-path">
      <rect id="Rettangolo_18" data-name="Rettangolo 18" width="119.483" height="96.149" fill="none"/>
    </clipPath>
  </defs>
  <g id="Raggruppa_37" data-name="Raggruppa 37" transform="translate(595)">
    <g id="Raggruppa_34" data-name="Raggruppa 34" transform="translate(-595)" clip-path="url(#clip-path)">
      <path id="Tracciato_127" data-name="Tracciato 127" d="M348.394,910.548a68.1,68.1,0,0,1-1.385-21.866H344.2a74.851,74.851,0,0,0,.54,17.809H308.908l-.509,1.687h36.62c.151.818.314,1.63.5,2.432H297.909l3.754-1.95a1.417,1.417,0,1,0-1.306-2.515l-8.642,4.49a1.6,1.6,0,0,0-.025,2.82l7.493,4.2a1.417,1.417,0,0,0,2.082-.956h0a1.417,1.417,0,0,0-.7-1.515l-3.144-1.764h48.391a2.793,2.793,0,0,0,2.158-1.029,2.154,2.154,0,0,0,.418-1.847" transform="translate(-268.935 -821.692)" fill="#008c2c"/>
      <path id="Tracciato_128" data-name="Tracciato 128" d="M870.543,398.953a1.237,1.237,0,0,1,1.306-1.038H876.8c3.829,0,6.233,2.255,5.428,5.546a6.779,6.779,0,0,1-4.219,4.705c-.418.154-.656.486-.452.839l1.92,3.866c.369.6,0,1.171-.8,1.171h-3.247c-.47,0-.818-.133-.962-.552l-1.289-3.976c-.167-.508-.708-.309-.848.264l-.822,3.358a1.111,1.111,0,0,1-1.14.905h-2.6c-.582,0-.837-.332-.7-.906Zm3.239,6.716H874.9a2.7,2.7,0,0,0,2.752-2.1c.3-1.237-.326-2.054-1.714-2.054H874.8a.565.565,0,0,0-.556.442l-.8,3.269a.323.323,0,0,0,.34.442" transform="translate(-801.678 -367.92)" fill="#008c2c"/>
      <path id="Tracciato_129" data-name="Tracciato 129" d="M1061.505,412.818l3.329-13.607a1.517,1.517,0,0,1,1.584-1.259h7.658c.582,0,.837.332.7.906l-.416,1.7a1.135,1.135,0,0,1-1.145.928h-4.1a.548.548,0,0,0-.556.442l-.47,1.921c-.065.265.049.442.34.442h3.694c.582,0,.837.332.7.906l-.411,1.679a1.11,1.11,0,0,1-1.14.905h-3.694a.556.556,0,0,0-.561.464l-.454,1.856c-.065.264.049.442.34.442h4.456c.582,0,.832.353.691.927l-.417,1.7a1.111,1.111,0,0,1-1.14.905l-8.016,0c-.828,0-1.168-.442-.968-1.26" transform="translate(-981.436 -367.954)" fill="#008c2c"/>
      <path id="Tracciato_130" data-name="Tracciato 130" d="M809.495,658.226l3.415-13.961a1.518,1.518,0,0,1,1.584-1.259h4.814c3.918,0,6.509,2.409,5.617,6.054-.859,3.512-4.612,5.853-8.53,5.853h-1.209a.572.572,0,0,0-.561.463l-.7,2.85a1.11,1.11,0,0,1-1.14.905h-2.6c-.582,0-.837-.332-.7-.906m6.546-6.8h1.3a3.316,3.316,0,0,0,3.041-2.363,1.919,1.919,0,0,0-1.836-2.563h-1.3a.573.573,0,0,0-.561.464l-.984,4.021a.323.323,0,0,0,.34.441" transform="translate(-748.439 -594.535)" fill="#008c2c"/>
      <path id="Tracciato_131" data-name="Tracciato 131" d="M1001.526,658.129,1005,643.947a1.111,1.111,0,0,1,1.14-.906h2.6c.582,0,.837.332.7.906l-2.675,10.934c-.07.287.066.464.334.464h5.441c.582,0,.837.332.7.906l-.492,2.011a1.111,1.111,0,0,1-1.139.905l-9.269,0c-.694,0-.966-.353-.8-1.038" transform="translate(-925.985 -594.568)" fill="#008c2c"/>
      <path id="Tracciato_132" data-name="Tracciato 132" d="M1166.428,658.171l7.912-13.761a2.368,2.368,0,0,1,2.183-1.325h2.261a1.361,1.361,0,0,1,1.568,1.281l2.041,13.808a.869.869,0,0,1-.97,1.038h-2.844a.77.77,0,0,1-.874-.729l-.126-1.59a.353.353,0,0,0-.35-.309h-5.172a.553.553,0,0,0-.5.309l-.787,1.568a1.336,1.336,0,0,1-1.214.751h-2.642c-.649,0-.838-.42-.485-1.038m7.813-5.212h2.463c.246,0,.435-.133.394-.42l-.374-4.33c-.042-.376-.294-.353-.515,0l-2.179,4.33c-.126.243-.058.42.211.42" transform="translate(-1078.34 -594.608)" fill="#008c2c"/>
      <path id="Tracciato_133" data-name="Tracciato 133" d="M1390.522,643.1h2.956a.86.86,0,0,1,.929.685l.94,5.678c.059.4.373.4.627,0l3.74-5.677a1.471,1.471,0,0,1,1.242-.685h2.664c.717,0,.9.442.407,1.083l-6.908,8.924a1.563,1.563,0,0,0-.341.662l-1.113,4.551a1.111,1.111,0,0,1-1.14.905h-2.485c-.582,0-.837-.332-.7-.906l1.108-4.529a1.186,1.186,0,0,0-.012-.684l-2.81-8.925c-.224-.641.176-1.083.892-1.083" transform="translate(-1284.82 -594.626)" fill="#008c2c"/>
      <path id="Tracciato_134" data-name="Tracciato 134" d="M1126.509,58.606a2.74,2.74,0,0,0-2.275-1.236h-4.851l-.624,2.807,5.144.006c-2.773,6.256-5.584,13.185-8.112,20.456h2.976c2.488-7.05,5.235-13.766,7.936-19.828a2.282,2.282,0,0,0-.193-2.205" transform="translate(-1031.681 -53.045)" fill="#008c2c"/>
      <path id="Tracciato_135" data-name="Tracciato 135" d="M48.8,237.844a29.4,29.4,0,1,0,29.4,29.4,29.4,29.4,0,0,0-29.4-29.4" transform="translate(-17.937 -219.915)" fill="#ffde00"/>
      <path id="Tracciato_136" data-name="Tracciato 136" d="M59.474,395.309a9.723,9.723,0,0,0-.707-1.044.4.4,0,0,0-.685.125,3.909,3.909,0,0,1-2.469,2.226,19.625,19.625,0,0,1-3.1.891,2.7,2.7,0,0,0-.3-.877,2.246,2.246,0,0,0-.893-.885,2.057,2.057,0,0,0-1.179-.235,2.246,2.246,0,0,0-1.043.374,1.9,1.9,0,0,0-.687.833,2.05,2.05,0,0,0-.15.984,2.749,2.749,0,0,0,.068.416c-.744.067-1.5.12-2.282.154-1.745.075-3.571.068-5.446-.006-1.85-.074-3.747-.214-5.662-.407-1.9-.192-3.815-.436-5.718-.72-1.856-.277-3.7-.612-5.549-.936s-3.547-.576-5.075-.754c-1.682-.2-3.173-.305-4.5-.337a25.385,25.385,0,0,0-3.813.163,12.8,12.8,0,0,0-3.049.736,7.741,7.741,0,0,0-3.094,2.14,18.74,18.74,0,0,0-3.373,7.218,35.744,35.744,0,0,0-.756,6.705c-.139,6.048,1.042,12.809,4.242,16.985a.4.4,0,0,0,.693-.138,4.657,4.657,0,0,1,2.945-2.969,13.037,13.037,0,0,1,4.046-.75q1.328-.09,2.927-.091.676,0,1.407.022c1.3.038,2.716.125,4.215.241s3.062.262,4.676.42c.981.1,1.979.2,2.984.3.006.032.011.064.019.1a2.553,2.553,0,0,0,.382.84,3.577,3.577,0,0,0,1.436,1.144,7.042,7.042,0,0,0,1.719.529,10.194,10.194,0,0,0,1.766.172,10.955,10.955,0,0,0,3.566-.536,9.952,9.952,0,0,0,2.525-1.258l.383.022c1.265.064,2.482.1,3.629.1q.648,0,1.258-.013a32.333,32.333,0,0,0,4.9-.423,16.658,16.658,0,0,0,3.868-1.139,17.429,17.429,0,0,0,4.076-2.567,10.456,10.456,0,0,0,2.081-2.373,25.707,25.707,0,0,0,2.5-8.2,26.191,26.191,0,0,0,.346-4.325,28.009,28.009,0,0,0-3.125-12.848" transform="translate(0 -364.409)" fill="#db000c"/>
      <path id="Tracciato_137" data-name="Tracciato 137" d="M229.415,481.887h-3.683a1.051,1.051,0,0,0-1.1.858l-2.071,8.656c-.528,2.214-1.728,3.715-3.157,3.715-1.128,0-1.614-.654-1.24-2.466.21-1.016,2.545-10.762,2.545-10.762h-3.652a1.075,1.075,0,0,0-1.116.858l-2.476,10.325c-.4,1.079-1.324,2.046-2.257,2.046-1.15,0-1.343-.843-1.1-2.092.191-.973,2.6-11.054,2.626-11.135h-3.252a1.1,1.1,0,0,0-1.136.857l-.235.979a2.969,2.969,0,0,0-3.179-2.249c-4.838,0-8.023,6.4-8.07,12.046-.027,3.266,1.717,4.735,3.98,4.735a5.288,5.288,0,0,0,4.924-2.888,3.124,3.124,0,0,0,3.356,2.888,4.987,4.987,0,0,0,4.476-2.82,3.163,3.163,0,0,0,3.526,2.821,5.315,5.315,0,0,0,4.53-2.645c-.1.475-.8,3.458-.8,3.458-5.4,1.752-10.584,4.157-10.584,6.993,0,1.939,1.823,2.9,4.61,2.9,4.915,0,8.826-3.042,10.38-9.521Zm-23.1,8.661c-.871,3.108-1.992,4.567-3.368,4.567-.994,0-1.529-.644-1.529-1.883,0-3.628,2.123-9.226,4.188-9.209,1.814.016,1.671,3.089.709,6.525m13.356,13.04c-.6,1.835-1.9,3.233-3.776,3.235-1.384,0-2.062-.828-1.672-1.964.419-1.221,2.524-2.443,6.177-3.945-.174.73-.433,1.773-.729,2.673" transform="translate(-182.022 -445.181)" fill="#fff"/>
      <path id="Tracciato_138" data-name="Tracciato 138" d="M56.417,451.1l4.914-20.94a1.313,1.313,0,0,0-1.369-1.75l-4.3-.039a7.918,7.918,0,0,1-.309,3.534s-2.686,11.623-4.583,19.837a18.671,18.671,0,0,1-.932,2.958,51.084,51.084,0,0,1,6.289-.39c3.883,0,6.517.518,8.916.518,3.31,0,4.923-1.934,4.442-4.437a5.514,5.514,0,0,1-3.562.929c-3.11,0-6.168-.547-9.5-.22" transform="translate(-46.079 -396.083)" fill="#fff"/>
      <path id="Tracciato_139" data-name="Tracciato 139" d="M614.312,484.2c1.133,0,1.877.748,3,.748a2.288,2.288,0,0,0,2.279-1.945,9.346,9.346,0,0,0-4.446-1.145c-4.08,0-6.469,2.09-6.469,5.157,0,3.652,4.886,5.515,4.886,7.823,0,.85-.6,1.4-1.713,1.4-1.742,0-2.42-1.014-3.7-1.014A2.5,2.5,0,0,0,606,497.016a8.545,8.545,0,0,0,5.051,1.6c4.588,0,6.442-2.7,6.442-5.092,0-3.747-4.862-5.226-4.862-7.743a1.531,1.531,0,0,1,1.682-1.573" transform="translate(-560.318 -445.539)" fill="#fff"/>
      <path id="Tracciato_140" data-name="Tracciato 140" d="M646.916,422.142a1.508,1.508,0,0,0-1.981-1.548c-.8.24-1.364,1.05-1.009,2.364a3.836,3.836,0,0,1,.26,1.509.891.891,0,0,1-.226.489c.026.077.156.159.368.159a2.923,2.923,0,0,0,2.588-2.972" transform="translate(-595.286 -388.82)" fill="#fff"/>
      <path id="Tracciato_141" data-name="Tracciato 141" d="M744.031,706.005a1.142,1.142,0,1,1-1.142,1.142,1.142,1.142,0,0,1,1.142-1.142m0,2.038a.9.9,0,1,0-.878-.9.861.861,0,0,0,.878.9m-.448-1.533h.49c.325,0,.493.105.493.373a.327.327,0,0,1-.334.346l.343.562h-.283l-.325-.562h-.138v.562h-.247Zm.463.544c.132,0,.255-.021.255-.2,0-.15-.147-.174-.252-.174h-.219v.37Z" transform="translate(-686.889 -652.786)" fill="#fff"/>
      <path id="Tracciato_142" data-name="Tracciato 142" d="M170.433,1013.323q-1.323-.466-2.6-1.047a121.218,121.218,0,0,1-5.2,11.8,2.358,2.358,0,0,0,.1,2.321,2.719,2.719,0,0,0,2.3,1.3h4.033l.709-2.813h-4.4a124.8,124.8,0,0,0,5.053-11.564" transform="translate(-150.138 -935.969)" fill="#008c2c"/>
      <path id="Tracciato_143" data-name="Tracciato 143" d="M426.111,4.319,418.768.2a1.557,1.557,0,0,0-2.286,1.037,1.158,1.158,0,0,0,.566,1.248l3.279,1.84H372.478a2.775,2.775,0,0,0-2.132,1.022,2.263,2.263,0,0,0-.446,1.931,51.8,51.8,0,0,1,1.193,8.209q.862-.047,1.731-.049c.355,0,.709.008,1.064.02q-.153-2.313-.457-4.489h34.544l.508-1.687H373.177q-.19-1.093-.423-2.143h47.19l-3.9,2.024a1.209,1.209,0,0,0-.633.862,1.467,1.467,0,0,0,2.121,1.558l8.551-4.442a1.6,1.6,0,0,0,.025-2.82" transform="translate(-341.962 0.001)" fill="#008c2c"/>
    </g>
  </g>
</svg>
