<svg xmlns="http://www.w3.org/2000/svg" xmlns:xlink="http://www.w3.org/1999/xlink" width="405.659" height="317.623" viewBox="0 0 405.659 317.623">
  <defs>
    <clipPath id="clip-path">
      <rect id="Rettangolo_207" data-name="Rettangolo 207" width="405.659" height="317.623" fill="none"/>
    </clipPath>
  </defs>
  <g id="Raggruppa_538" data-name="Raggruppa 538" clip-path="url(#clip-path)">
    <path id="Tracciato_10202" data-name="Tracciato 10202" d="M216.116,30.66H99.48q-.628-3.611-1.4-7.08H253.972L241.1,30.266a4,4,0,0,0-2.092,2.847,4.847,4.847,0,0,0,7.006,5.149l28.248-14.676a5.289,5.289,0,0,0,.084-9.316L250.089.661a5.146,5.146,0,0,0-7.552,3.427,3.823,3.823,0,0,0,1.871,4.121l10.831,6.077H97.173a9.165,9.165,0,0,0-7.044,3.377,7.474,7.474,0,0,0-1.473,6.378c17.506,74.12-19.049,204.935-51.011,267.024a7.789,7.789,0,0,0,.346,7.668,8.98,8.98,0,0,0,7.608,4.3H58.922l2.342-9.294H46.715c30.449-60.093,64.431-180.435,53.61-257.5H214.437" transform="translate(14.59 0)" fill="#fff"/>
    <path id="Tracciato_10203" data-name="Tracciato 10203" d="M249.767,230.7c-5.561-22.941-6.649-46.271-4.576-72.233H235.92c-1.63,20.925-1.225,39.548,1.782,58.831H119.328l-1.681,5.575H238.618c.5,2.7,1.039,5.383,1.649,8.033H83l12.4-6.443a4.68,4.68,0,1,0-4.315-8.306L62.535,230.987a5.289,5.289,0,0,0-.084,9.316l24.754,13.888a4.678,4.678,0,0,0,6.878-3.159h0a4.682,4.682,0,0,0-2.3-5L81.4,240.2H241.257a9.225,9.225,0,0,0,7.128-3.4,7.112,7.112,0,0,0,1.383-6.1" transform="translate(23.674 62.83)" fill="#fff"/>
    <path id="Tracciato_10204" data-name="Tracciato 10204" d="M174.037,74.383a4.086,4.086,0,0,1,4.315-3.428l16.347,0c12.648,0,20.59,7.449,17.931,18.32a22.4,22.4,0,0,1-13.937,15.543c-1.381.51-2.167,1.6-1.491,2.772l6.344,12.771c1.219,1.97.015,3.868-2.648,3.868l-10.725,0c-1.553,0-2.7-.438-3.178-1.824l-4.256-13.137c-.552-1.679-2.339-1.022-2.8.874l-2.713,11.094a3.671,3.671,0,0,1-3.765,2.99h-8.58c-1.923,0-2.765-1.1-2.3-2.991Zm10.7,22.187h3.7a8.928,8.928,0,0,0,9.092-6.931c1-4.086-1.078-6.786-5.663-6.787h-3.772a1.867,1.867,0,0,0-1.836,1.459l-2.642,10.8a1.068,1.068,0,0,0,1.123,1.461" transform="translate(64.409 28.132)" fill="#fff"/>
    <path id="Tracciato_10205" data-name="Tracciato 10205" d="M197.3,120.071l11-44.95a5.012,5.012,0,0,1,5.234-4.159l25.3,0c1.923,0,2.764,1.1,2.3,2.994l-1.374,5.618a3.749,3.749,0,0,1-3.782,3.065l-13.536,0A1.807,1.807,0,0,0,220.6,84.1l-1.553,6.347c-.215.876.161,1.459,1.123,1.459l12.2,0c1.923,0,2.765,1.1,2.3,2.991l-1.357,5.547a3.668,3.668,0,0,1-3.765,2.991l-12.2,0a1.839,1.839,0,0,0-1.855,1.533L214,111.1c-.214.874.161,1.461,1.123,1.461l14.719,0c1.923,0,2.748,1.167,2.285,3.062l-1.376,5.621a3.669,3.669,0,0,1-3.765,2.99l-26.48,0c-2.736,0-3.859-1.461-3.2-4.161" transform="translate(78.154 28.135)" fill="#fff"/>
    <path id="Tracciato_10206" data-name="Tracciato 10206" d="M152.308,164.937l11.282-46.117a5.012,5.012,0,0,1,5.234-4.16l15.9,0c12.944,0,21.5,7.959,18.555,20C200.445,146.264,188.05,154,175.106,154h-3.994a1.89,1.89,0,0,0-1.855,1.531l-2.3,9.414a3.669,3.669,0,0,1-3.765,2.991h-8.579c-1.923,0-2.766-1.1-2.3-2.993m21.625-22.474h4.29a10.953,10.953,0,0,0,10.045-7.806c1.107-4.525-1.48-8.464-6.065-8.465h-4.29a1.892,1.892,0,0,0-1.855,1.531l-3.248,13.282a1.066,1.066,0,0,0,1.123,1.458" transform="translate(60.338 45.46)" fill="#fff"/>
    <path id="Tracciato_10207" data-name="Tracciato 10207" d="M186.583,164.505l11.46-46.848a3.671,3.671,0,0,1,3.766-2.993h8.579c1.925,0,2.765,1.1,2.3,2.994l-8.837,36.121c-.232.948.218,1.531,1.106,1.532l17.973,0c1.923,0,2.764,1.1,2.3,2.991l-1.624,6.643a3.669,3.669,0,0,1-3.764,2.99l-30.622-.006c-2.293,0-3.191-1.167-2.638-3.43" transform="translate(73.914 45.463)" fill="#fff"/>
    <path id="Tracciato_10208" data-name="Tracciato 10208" d="M216.387,164.51l26.135-45.458c1.768-2.991,4.032-4.379,7.211-4.379h7.47c3.107,0,4.781,1.316,5.178,4.233l6.742,45.613c.24,2.043-.913,3.428-3.2,3.428h-9.394a2.542,2.542,0,0,1-2.888-2.409l-.416-5.254a1.166,1.166,0,0,0-1.155-1.022l-17.086,0a1.828,1.828,0,0,0-1.655,1.021l-2.6,5.18a4.411,4.411,0,0,1-4.009,2.482h-8.729c-2.144,0-2.766-1.387-1.6-3.43m25.81-17.217h8.136c.814,0,1.438-.438,1.3-1.385L250.4,131.6c-.141-1.24-.972-1.166-1.7,0l-7.2,14.3c-.416.8-.19,1.387.7,1.387" transform="translate(85.564 45.465)" fill="#fff"/>
    <path id="Tracciato_10209" data-name="Tracciato 10209" d="M258.78,114.676h9.763a2.842,2.842,0,0,1,3.071,2.264l3.1,18.756c.2,1.313,1.233,1.313,2.071,0l12.355-18.753a4.859,4.859,0,0,1,4.1-2.262l8.8,0c2.367,0,2.972,1.459,1.345,3.576l-22.82,29.48a5.158,5.158,0,0,0-1.125,2.188l-3.678,15.032A3.669,3.669,0,0,1,272,167.952h-8.21c-1.923,0-2.764-1.1-2.3-2.993L265.155,150a3.906,3.906,0,0,0-.041-2.26l-9.281-29.485c-.74-2.117.58-3.576,2.947-3.576" transform="translate(101.352 45.467)" fill="#fff"/>
    <path id="Tracciato_10210" data-name="Tracciato 10210" d="M242.214,14.315A9.052,9.052,0,0,0,234.7,10.23H218.675l-2.06,9.273,16.991.021c-9.16,20.665-18.445,43.555-26.8,67.574h9.83c8.218-23.289,17.3-45.475,26.216-65.5a7.544,7.544,0,0,0-.64-7.284" transform="translate(81.996 4.056)" fill="#fff"/>
    <path id="Tracciato_10211" data-name="Tracciato 10211" d="M105.959,241.731a101.1,101.1,0,0,1-75.347-33.678c-5.175-.264-9.89-1.919-12.944-4.558a3.865,3.865,0,0,1-.691-.612c-.081-.091-.258-.3-.258-.3a12.047,12.047,0,0,1-.959-1.131C10.686,195.224-.774,177.143.042,141.706a122.307,122.307,0,0,1,2.589-22.913c2.261-10.328,7.894-20.915,12.047-25.634a28.982,28.982,0,0,1,4.093-3.817A101.137,101.137,0,0,1,185.219,77.8a16.456,16.456,0,0,1,7.037-1.69l.325,0a10.242,10.242,0,0,1,7.051,2.627c.142.123.341.309.559.528a20.047,20.047,0,0,1,2.993,3.942c.229.358.465.735.719,1.155.031.052.061.1.091.159.521.959,1.039,1.977,1.634,3.2l.193.384c.088.179.162.348.229.513,6.985,14.877,8.613,30.063,8.75,40.2a89.9,89.9,0,0,1-1.191,14.961c-1.82,11.6-5.545,23.659-8.861,28.684a41.166,41.166,0,0,1-5.159,6.414,101.156,101.156,0,0,1-93.63,62.857" transform="translate(0 15.651)" fill="#fff"/>
    <path id="Tracciato_10212" data-name="Tracciato 10212" d="M103.451,42.411a97.122,97.122,0,1,0,97.123,97.123,97.123,97.123,0,0,0-97.123-97.123" transform="translate(2.509 16.815)" fill="#fd0"/>
    <path id="Tracciato_10213" data-name="Tracciato 10213" d="M199.338,74.212A32.168,32.168,0,0,0,197,70.764a1.314,1.314,0,0,0-2.264.412c-.743,2.07-2.748,5.24-8.157,7.352a64.711,64.711,0,0,1-10.253,2.945,8.9,8.9,0,0,0-.987-2.9,7.421,7.421,0,0,0-2.951-2.924,6.8,6.8,0,0,0-3.9-.776,7.409,7.409,0,0,0-3.445,1.235,6.281,6.281,0,0,0-2.269,2.751,6.768,6.768,0,0,0-.5,3.251,8.955,8.955,0,0,0,.225,1.374c-2.458.222-4.966.4-7.538.507-5.766.249-11.8.226-17.991-.021-6.11-.243-12.378-.705-18.7-1.345-6.273-.634-12.6-1.441-18.887-2.38-6.131-.916-12.225-2.021-18.33-3.092-6.15-1.079-11.718-1.9-16.765-2.489-5.555-.647-10.481-1.008-14.863-1.114a83.777,83.777,0,0,0-12.595.538,42.231,42.231,0,0,0-10.071,2.43,25.581,25.581,0,0,0-10.219,7.069C12.73,87.924,7.454,98.067,5.4,107.436a118.05,118.05,0,0,0-2.5,22.15c-.458,19.978,3.444,42.312,14.014,56.108a1.307,1.307,0,0,0,2.289-.455c.772-2.762,3.053-6.991,9.731-9.807,3.386-1.43,7.866-2.1,13.366-2.476q4.386-.3,9.671-.3,2.233,0,4.647.074c4.286.127,8.971.412,13.926.8,4.923.383,10.115.864,15.448,1.388,3.241.318,6.538.652,9.858.987.021.106.036.211.061.317a8.432,8.432,0,0,0,1.261,2.775,11.816,11.816,0,0,0,4.745,3.779,23.221,23.221,0,0,0,5.678,1.747,33.7,33.7,0,0,0,5.836.567,36.2,36.2,0,0,0,11.781-1.771,32.911,32.911,0,0,0,8.34-4.156c.42.022.849.049,1.265.07,4.18.211,8.2.332,11.989.332q2.143,0,4.155-.042a106.844,106.844,0,0,0,16.189-1.4,55.03,55.03,0,0,0,12.776-3.762,57.525,57.525,0,0,0,13.465-8.479,34.556,34.556,0,0,0,6.876-7.838c2.734-4.145,6.407-15.377,8.246-27.1a86.575,86.575,0,0,0,1.142-14.287c-.182-13.618-3-28.942-10.321-42.443" transform="translate(1.137 27.864)" fill="#e01b22"/>
    <path id="Tracciato_10214" data-name="Tracciato 10214" d="M145.51,87.217H133.344A3.471,3.471,0,0,0,129.7,90.05l-6.841,28.593c-1.743,7.312-5.707,12.271-10.429,12.271-3.726,0-5.33-2.16-4.1-8.144.7-3.356,8.41-35.553,8.41-35.553H104.677a3.551,3.551,0,0,0-3.69,2.833l-8.176,34.106c-1.335,3.562-4.375,6.758-7.454,6.758-3.8,0-4.437-2.783-3.624-6.911.63-3.215,8.6-36.515,8.674-36.783H79.662a3.645,3.645,0,0,0-3.751,2.831l-.776,3.234c-1.193-4.724-4.916-7.429-10.5-7.429-15.983,0-26.505,21.133-26.66,39.794-.089,10.789,5.671,15.641,13.146,15.641,8.121,0,12.785-3.73,16.268-9.539,1.007,6.139,4.791,9.539,11.087,9.539,6.594,0,11.231-3.331,14.785-9.314.888,5.625,4.483,9.319,11.645,9.319a17.56,17.56,0,0,0,14.965-8.738c-.346,1.571-2.659,11.426-2.659,11.426-17.855,5.786-34.965,13.733-34.965,23.1,0,6.4,6.023,9.583,15.229,9.583,16.237,0,29.159-10.048,34.291-31.45Zm-76.325,28.61c-2.875,10.267-6.579,15.088-11.124,15.088-3.285,0-5.051-2.127-5.051-6.221,0-11.986,7.015-30.48,13.835-30.422,5.994.052,5.52,10.206,2.341,21.556M113.308,158.9c-1.994,6.062-6.294,10.68-12.476,10.686-4.569,0-6.811-2.734-5.522-6.487,1.383-4.034,8.336-8.072,20.405-13.031-.577,2.41-1.43,5.857-2.408,8.831" transform="translate(15.056 34.04)" fill="#fff"/>
    <path id="Tracciato_10215" data-name="Tracciato 10215" d="M33.5,151.473,49.731,82.3c.807-3.44-1.131-5.749-4.525-5.783l-14.212-.13c.515,3.057.447,5.286-1.019,11.673,0,0-8.873,38.4-15.139,65.531a61.562,61.562,0,0,1-3.081,9.771,168.948,168.948,0,0,1,20.775-1.287c12.827,0,21.53,1.712,29.453,1.712,10.936,0,16.262-6.389,14.676-14.658-2.713,2.007-5.959,3.07-11.767,3.07-10.274,0-20.376-1.808-31.4-.726" transform="translate(4.661 30.286)" fill="#fff"/>
    <path id="Tracciato_10216" data-name="Tracciato 10216" d="M138.389,93.662c3.744,0,6.2,2.47,9.9,2.47,4.625,0,6.616-3.142,7.527-6.425a30.87,30.87,0,0,0-14.685-3.783c-13.479,0-21.369,6.9-21.369,17.034,0,12.063,16.142,18.217,16.142,25.843,0,2.808-2,4.636-5.657,4.636-5.756,0-7.995-3.35-12.229-3.35-3.333,0-5.807,2.736-7.084,5.9,2.665,2.335,9.405,5.277,16.685,5.277,15.157,0,21.282-8.91,21.282-16.822,0-12.377-16.064-17.263-16.064-25.579,0-2.849,1.9-5.2,5.557-5.2" transform="translate(43.981 34.067)" fill="#fff"/>
    <path id="Tracciato_10217" data-name="Tracciato 10217" d="M127.908,80.346c0-3.817-3.095-6.149-6.544-5.115-2.645.792-4.505,3.47-3.332,7.809.458,1.691,1.1,3.326.859,4.985a2.946,2.946,0,0,1-.746,1.614c.084.253.517.525,1.214.525,4.724,0,8.549-5,8.549-9.819" transform="translate(46.655 29.73)" fill="#fff"/>
    <path id="Tracciato_10218" data-name="Tracciato 10218" d="M139.111,125.892a3.773,3.773,0,1,1-3.773,3.773,3.771,3.771,0,0,1,3.773-3.773m0,6.732a2.96,2.96,0,1,0-2.9-2.959,2.844,2.844,0,0,0,2.9,2.959m-1.479-5.064h1.618c1.073,0,1.628.348,1.628,1.232a1.078,1.078,0,0,1-1.1,1.141l1.133,1.857h-.934l-1.073-1.857h-.457v1.857h-.814Zm1.529,1.8c.437,0,.843-.07.843-.645,0-.5-.486-.577-.834-.577h-.725v1.222Z" transform="translate(53.659 49.914)" fill="#fff"/>
  </g>
</svg>
