<svg xmlns="http://www.w3.org/2000/svg" width="2301.378" height="2301.38" viewBox="0 0 2301.378 2301.38">
  <path id="Tracciato_433" data-name="Tracciato 433" d="M1741.126,2891.818c-634.493,0-1150.689-516.2-1150.689-1150.689s516.2-1150.691,1150.689-1150.691,1150.689,516.2,1150.689,1150.691-516.2,1150.689-1150.689,1150.689" transform="translate(-590.437 -590.438)" fill="#0ab82d"/>
  <path id="Tracciato_434" data-name="Tracciato 434" d="M1691.585,2753.907c-585.766,0-1062.32-476.554-1062.32-1062.32s476.554-1062.32,1062.32-1062.32,1062.321,476.554,1062.321,1062.32-476.555,1062.32-1062.321,1062.32" transform="translate(-540.896 -540.896)" fill="#09a039"/>
  <path id="Tracciato_435" data-name="Tracciato 435" d="M1640.36,2611.309c-535.382,0-970.947-435.565-970.947-970.947s435.565-970.947,970.947-970.947,970.947,435.565,970.947,970.947-435.565,970.947-970.947,970.947" transform="translate(-489.671 -489.671)" fill="#0ab03f"/>
  <path id="Tracciato_436" data-name="Tracciato 436" d="M1579.377,2441.548c-475.4,0-862.168-386.767-862.168-862.168s386.765-862.17,862.168-862.17,862.168,386.768,862.168,862.17-386.765,862.168-862.168,862.168" transform="translate(-428.688 -428.689)" fill="#0ab82d"/>
  <path id="Tracciato_437" data-name="Tracciato 437" d="M1488.145,2187.576c-385.666,0-699.432-313.763-699.432-699.429s313.766-699.431,699.432-699.431,699.43,313.763,699.43,699.431-313.763,699.429-699.43,699.429" transform="translate(-337.455 -337.455)" fill="#09a039"/>
</svg>
