<svg xmlns="http://www.w3.org/2000/svg" xmlns:xlink="http://www.w3.org/1999/xlink" viewBox="0 0 1341 896.65"><defs><style>.cls-1{fill:none;}.cls-2{fill:#067fff;}.cls-3{fill:#fed900;}.cls-4{clip-path:url(#clip-path);}.cls-5{fill:url(#radial-gradient);}.cls-6{fill:url(#radial-gradient-2);}.cls-7{clip-path:url(#clip-path-2);}.cls-8{fill:url(#radial-gradient-3);}.cls-9{fill:url(#radial-gradient-4);}.cls-10{fill:#fff;}</style><clipPath id="clip-path" transform="translate(0 102.54)"><path class="cls-1" d="M266.09,243.78c-14.65,0-28.85-6.49-39.07-18.75-16-19.17-16.57-45.28-1.48-65l24.77-32.31L225.54,95.44c-15.09-19.69-14.5-45.8,1.49-65C242.76,11.6,267.94,6.4,289.69,17.53c.74.37,1.5.79,2.25,1.22l107.2,61.13h0a55.1,55.1,0,0,1,0,95.74L292,236.75c-.77.44-1.52.84-2.27,1.23A51.68,51.68,0,0,1,266.09,243.78Z"/></clipPath><radialGradient id="radial-gradient" cx="-729.98" cy="206.27" fx="-796.8573934635743" fy="293.64313044252896" r="177.39" gradientTransform="translate(895.98 -120.63) rotate(-16.04)" gradientUnits="userSpaceOnUse"><stop offset="0.35" stop-color="#cb1e57"/><stop offset="0.77" stop-color="#b72357" stop-opacity="0.21"/><stop offset="0.88" stop-color="#b22457" stop-opacity="0"/></radialGradient><radialGradient id="radial-gradient-2" cx="2591.13" cy="-1821.3" fx="2703.8364649815935" fy="-1854.1781440058533" r="224.1" gradientTransform="matrix(-0.48, -0.88, 0.79, -0.43, 2954.93, 1653.15)" gradientUnits="userSpaceOnUse"><stop offset="0" stop-color="#48c932"/><stop offset="0.12" stop-color="#48c533" stop-opacity="0.87"/><stop offset="0.38" stop-color="#49bb37" stop-opacity="0.54"/><stop offset="0.75" stop-color="#4baa3d" stop-opacity="0.01"/><stop offset="0.76" stop-color="#4baa3d" stop-opacity="0"/></radialGradient><clipPath id="clip-path-2" transform="translate(0 102.54)"><path class="cls-1" d="M745.29,492.91H557.82c-27.86,0-44.39-22.58-36.93-50.44l10.86-40.53c7.47-27.86,36.1-50.44,64-50.44H783.18c27.85,0,44.39,22.58,36.92,50.44l-10.86,40.53C801.78,470.33,773.14,492.91,745.29,492.91Z"/></clipPath><radialGradient id="radial-gradient-3" cx="1119.62" cy="-4437.19" fx="1052.7342500453672" fy="-4349.818586734839" r="177.39" gradientTransform="translate(681.1 -4073.61) rotate(163.96)" xlink:href="#radial-gradient"/><radialGradient id="radial-gradient-4" cx="142.52" cy="318.92" fx="255.22287962341517" fy="286.0375708888147" r="224.1" gradientTransform="matrix(-0.88, 0.48, -0.43, -0.79, 827.05, 683.35)" xlink:href="#radial-gradient-2"/></defs><g id="Livello_2" data-name="Livello 2"><g id="Layer_1" data-name="Layer 1"><path class="cls-2" d="M644.77,739.37q-3.81-95.93-7.64-191.84-.86-17.84-1.7-35.66-.42-13.58-.84-27.16-1.27-22.06-2.13-44.56,0-7.22-1.91-11a10.49,10.49,0,0,0-5.73-5.3q-3.81-1.49-11.46-1.49H562q-10.18,0-15.49,3.61T537,439.72q-16.56,42-33.11,84-1.28,3.81-3,7.64Q478,590.83,454.63,649.81q-16.56,42.45-33.11,84.89-3,7.63-5.51,14.85-5.52,12.74-10.61,25.89-5.1,13.59,8.06,17a25.29,25.29,0,0,0,8.06,1.27q19.11.42,38.2,0,9.76,0,14.86-3.82t8.49-13.15c.91-2.48,9.3-25.18,20.25-54.77h64.15c.28,31.06.39,55,.48,57.31q0,7.23,3.18,10.4t10,4H624.4a28,28,0,0,0,8.06-1.27q11-2.55,12.74-13.16.42-4.23.42-8.91Q645.2,755.07,644.77,739.37Zm-114.95-89c16.24-43.82,30.54-82.31,30.92-82.93.56-.84,1.83-.84,2.12,0,1.86,3,3,40.4,3.74,82.93Z" transform="translate(0 102.54)"/><path class="cls-2" d="M22.15,607.79,42.94,487.68a98,98,0,0,1,7.43-21,81.54,81.54,0,0,1,13-18.88A75,75,0,0,1,85,431.23,71.33,71.33,0,0,1,110.43,424q11.88-.86,24.4-1.28t24.83-.42h2.12q8.07,0,15.71.21a123.92,123.92,0,0,1,15.7,1.49q22.92,3.83,34.17,17.82t10.4,37.35a187.46,187.46,0,0,1-2.34,23.13q-1.9,11.69-4,23.14l-2.55,14.43q-2.13,8.91-7.64,13.79t-14.85,4.88q-19.53.44-38.62,0-9.78,0-13.37-4.67t-1.91-14.43l5.09-30.13c.85-4.25.7-7.07-.42-8.49s-3.82-2.12-8.07-2.12q-10.61-.42-21.22,0c-3.12,0-5.38.63-6.79,1.91s-2.55,3.46-3.4,6.58l-34.8,198.2a26.11,26.11,0,0,0-.42,7.85,4.14,4.14,0,0,0,2.76,3.61q2.32.86,7.85.43h2.12a155,155,0,0,0,16.13,0q5.5,0,8.06-2.13t3.4-7.64L128.25,677q1.69-10.61,7-15.07t15.49-4.46H189q9.33,0,13.15,4.25t2.55,13.58L203,685.89q-2.13,12.74-4.45,25.68a233,233,0,0,1-6.16,25.67,84.74,84.74,0,0,1-15.06,27.38,77.53,77.53,0,0,1-23.56,19.31A68.9,68.9,0,0,1,124.86,792q-30.56,2.12-61.12,1.69a110.8,110.8,0,0,1-18.25-1.48,70.39,70.39,0,0,1-17.4-5.31q-17-8.49-23.56-23.13T.93,729.6Q6,694.38,12.39,658.73l9.33-50.94Z" transform="translate(0 102.54)"/><path class="cls-2" d="M200,773.75,259,439.3a23.1,23.1,0,0,1,6.37-12.1q4.67-4.45,12.31-4.88,23.34-.42,47.11,0,11.46.44,11.88,12.73a65.06,65.06,0,0,1-.84,10.61L315,563.23q-.86,4.24.21,5.73t5.31,1.48q12.72.43,25.46,0c2.55,0,4.31-.49,5.31-1.48s1.76-2.76,2.33-5.31L375.69,439.3a23.1,23.1,0,0,1,6.37-12.1q4.67-4.45,12.31-4.88,23.33-.42,47.11,0,5.5.44,8.49,3.4c2,2,3,4.95,3,8.91a26.17,26.17,0,0,1,0,9.34L394.79,772.05a40.06,40.06,0,0,1-3,9.33,16.86,16.86,0,0,1-12.73,11,3.84,3.84,0,0,1-1.7.42,14.8,14.8,0,0,1-4.67.85H363q-16.56.42-32.68,0-8.91-.42-12.31-5.09t-1.7-14l20.37-115.44a43.58,43.58,0,0,0,1.07-9.55,3.44,3.44,0,0,0-2.76-3.39,41.79,41.79,0,0,0-8.92-.64H309.48c-4,0-6.51.5-7.64,1.48s-2.12,3.47-3,7.43L277.22,777.14A24.06,24.06,0,0,1,270,788.81a19.91,19.91,0,0,1-12.31,4.88q-22.5.85-45,0-8.91-.42-11.67-5.3T200,773.75Z" transform="translate(0 102.54)"/><path class="cls-2" d="M658.35,772.9l59-334.88a21.82,21.82,0,0,1,5.94-10.82,17.07,17.07,0,0,1,11-4.46q23.76-.84,46.69,0a11.42,11.42,0,0,1,8.06,2.76,15.7,15.7,0,0,1,4.24,7.85,9.23,9.23,0,0,0,.43,3q2.12,10.6,4.24,20.79,6.38,34.81,12.31,69.61,3.83,19.95,7.21,40.32v.42c.29,1.7.57,3.26.86,4.67.27.29.49.5.63.64a.83.83,0,0,0,.64.21,1.25,1.25,0,0,0,.85-.42c.27-.28.56-.57.85-.85.56-2.55,1.12-5.09,1.69-7.64l20.8-119.26a66,66,0,0,1,2.12-8.07q4.24-14,18.68-14.43,22.49-.42,45,0,7.21.44,10.82,4.67t2.76,11.88L864.62,771.2q-1.71,11.88-7.86,17.4t-18.88,5.09H806.05q-10.18,0-14.43-3.61t-6-13.36Q774.21,713,762.33,649.81a23.41,23.41,0,0,0-1.27-4.67,2.85,2.85,0,0,1-.85-2.12,10.11,10.11,0,0,0-1.27,2.55,17.85,17.85,0,0,0-1.7,5.52L735.17,775.44q-2.13,9.34-7,13.58T714,793.69q-17,.42-34,0a82.76,82.76,0,0,1-14.43-1.27Q660.9,791.15,659,788a13.61,13.61,0,0,1-1.48-8.27C657.78,777.43,658.06,775.16,658.35,772.9Z" transform="translate(0 102.54)"/><path class="cls-2" d="M904.09,608.22l21.22-120.11a84.35,84.35,0,0,1,11.46-28.44q9.75-15.71,23.55-24.4A78.93,78.93,0,0,1,991.09,424a189.61,189.61,0,0,1,25-1.7q25-.42,50.51,0a128.83,128.83,0,0,1,23.34,3q20.38,4.68,30.56,19.74t7.22,38.41a206.66,206.66,0,0,1-3,22.28q-2.13,11.25-4.25,22.71-1.27,5.94-2.54,12.3a20.84,20.84,0,0,1-5.52,11.46q-4.24,4.26-11.46,4.25-23.36,1.27-45.84.42-6.79-.42-10-4.45c-2.12-2.69-2.91-6.44-2.34-11.25l5.1-28.86a26.56,26.56,0,0,0,.85-6.37c0-2.55-.43-4.38-1.28-5.52s-2.41-1.69-4.67-1.69h-34.8a8.84,8.84,0,0,0-5.3,1.69,8.48,8.48,0,0,0-3.19,4.67,44.32,44.32,0,0,0-1.69,8.49l-33.11,187.6q-1.71,7.22-1.27,10.82a5.11,5.11,0,0,0,3.82,4.67q3.39,1.07,10.18.64a45.63,45.63,0,0,1,6.37.42q9.33,0,18.67-.42,5.1,0,7.64-1.91c1.7-1.28,2.83-3.61,3.4-7q4.23-21.64,7.64-43.29c.28-2.55.07-4.31-.64-5.3s-2.33-1.49-4.88-1.49a19.93,19.93,0,0,0-3.82-.42h-3.39q-7.65-.42-11-4.25t-2.12-11.88q2.11-13.57,4.67-27.16l1.69-11.47c.57-2,1.13-4.09,1.7-6.36q3.39-13.57,16.55-13.58,38.21-.42,76.83-.43,14,.43,11,15.71-3.4,22.06-7.64,44.14l-14.86,84a105.4,105.4,0,0,1-5.09,17.83,71.82,71.82,0,0,1-9.34,17,76.6,76.6,0,0,1-24.19,21.43,78.87,78.87,0,0,1-30.13,9.13,267.71,267.71,0,0,1-27.38,1.91q-13.36.2-26.95-.22h-19.1a64.62,64.62,0,0,1-11.67-1.06q-5.73-1.05-11.25-2.33-18.24-4.66-27.8-17t-10-31.83a88,88,0,0,1,.85-12.1q.84-6.15,1.7-12.52,6.78-39.47,13.58-79.37l5.09-29.28Z" transform="translate(0 102.54)"/><path class="cls-2" d="M1110.36,651.09l37.77-214.34c.28-3.4,2-6.5,5.09-9.34a19.71,19.71,0,0,1,10.61-5.09h165.1q6.38.85,9.55,4.46c2.13,2.4,2.9,5.87,2.34,10.4q-3.4,23.34-8.07,46.68c-1.13,4.82-3.32,8.49-6.57,11s-7.43,3.82-12.53,3.82h-88.28a73.73,73.73,0,0,0-9.33.42,4.78,4.78,0,0,0-4,3.18,62.33,62.33,0,0,0-2.33,9.55l-8.06,47.54a23.15,23.15,0,0,0-.64,6.37,3,3,0,0,0,2.12,2.75,21,21,0,0,0,6.15.64h60.27a15.59,15.59,0,0,1,5.1,0q8.06,1.27,11.88,5.31t1.7,12.94l-3.4,19.53q-1.69,10.6-3.82,21.22-3,17.4-20.37,17.4h-65.36q-5.52,0-7.64,1.7c-1.42,1.13-2.41,3.54-3,7.21l-9.76,54.75q-.86,5.52.42,7c.85,1,3.25,1.34,7.22,1.06q29.7.42,59.42,0h28.86a39.81,39.81,0,0,1,5.52.42q6.78,0,10.18,3.61t2.12,10q-3.4,24.63-8.48,48.81-2.13,9.35-11.89,11.89a43.49,43.49,0,0,1-11.88,1.69h-152.8q-11-.42-14-5.3t-1.7-14.22Q1099.32,712.64,1110.36,651.09Z" transform="translate(0 102.54)"/><path class="cls-2" d="M869,317.25q-3.82-95.91-7.64-191.84-.86-17.82-1.7-35.65-.42-13.58-.85-27.16Q857.54,40.53,856.68,18q0-7.2-1.91-11A10.51,10.51,0,0,0,849,1.69Q845.23.22,837.58.21H786.23Q776,.21,770.74,3.82t-9.55,13.79q-16.56,42-33.11,84-1.27,3.81-3,7.64-22.92,59.42-46.26,118.41-16.56,42.45-33.11,84.89-3,7.64-5.51,14.85-5.54,12.74-10.62,25.89-5.08,13.59,8.07,17a25.29,25.29,0,0,0,8.06,1.27q19.11.42,38.2,0,9.76,0,14.86-3.82t8.48-13.16c.92-2.47,9.31-25.17,20.26-54.76h64.15c.28,31.05.39,55,.48,57.31q0,7.23,3.18,10.4t10,4h43.29a28,28,0,0,0,8.06-1.27q11-2.55,12.73-13.16c.28-2.82.43-5.8.43-8.91Q869.42,333,869,317.25Zm-115-89C770.28,184.47,784.58,146,785,145.36c.57-.85,1.84-.85,2.13,0,1.86,3,3,40.4,3.73,82.93Z" transform="translate(0 102.54)"/><path class="cls-2" d="M223.87,352.06l37.35-211.79Q271.83,81.69,281.6,23.55q2.11-12.73,8.27-18.25T309.61.21h49.23q24.62,0,49.24.42A84.49,84.49,0,0,1,436.51,5.3q18.67,6.38,26.1,20.59t6.16,34.16q-.86,6-1.7,11.89L447.12,184.83a87.49,87.49,0,0,1-5.73,19.74,76.6,76.6,0,0,1-10.82,18A75.51,75.51,0,0,1,407.23,243a71.38,71.38,0,0,1-28.86,8.49q-13.17,1.28-27.17,1.7H325.74q-4.68,0-6.37,1.48c-1.13,1-2,3.18-2.55,6.58l-5.51,31.41q-5.52,30.14-10.19,60.27-1.69,10.18-7.43,14.43t-14.22,4.24q-20,.84-39.89,0c-5.09-.28-8.85-1.27-11.25-3a11.47,11.47,0,0,1-4.67-6.79A20.94,20.94,0,0,1,223.87,352.06Z" transform="translate(0 102.54)"/><path class="cls-2" d="M428.44,352.06,487.86,16.34a22.74,22.74,0,0,1,6.37-11.25Q498.9.63,506.54.21q23.34-.42,46.68,0Q565.53.63,566,13.79A41.84,41.84,0,0,1,564.68,24L518.85,284.15a40.71,40.71,0,0,0-1.28,7.85,2.89,2.89,0,0,0,2.55,3,27.31,27.31,0,0,0,8.06.21h5.1q16.13.44,32.68,0,22.06,0,44.14.43a27.45,27.45,0,0,1,10.61,2.12,10.76,10.76,0,0,1,4.45,4.88,11.81,11.81,0,0,1,.64,7.43l-.85,4.67q-3.41,21.23-7.64,42a14.78,14.78,0,0,1-4.67,9.33,20.92,20.92,0,0,1-9.76,4.67,58.92,58.92,0,0,1-9.76.85H443.72q-9.77-.42-13.37-5.09T428.44,352.06Z" transform="translate(0 102.54)"/><path class="cls-2" d="M910.67,331.68l10.61-61.11q3.83-21.65,8.07-43.29a48.26,48.26,0,0,0-.43-19.1Q907.28,117.35,886.06,26.1A25.31,25.31,0,0,1,884.78,18,18.47,18.47,0,0,1,888.6,7.42Q892,3.19,898.79,1.48A28,28,0,0,1,906.85.21h39q8.91,0,13.16,3.18c2.82,2.12,4.8,6,5.94,11.67q3.82,19.11,8.06,38.63Q979,80.85,985,108q.84,2.55,1.69,4.67a5.39,5.39,0,0,1,1.28,2.12,14,14,0,0,1,1.69-2.12,21.87,21.87,0,0,0,3.4-4.24,127.59,127.59,0,0,1,6.79-11.89q21.65-38.19,43.29-76.82a72.92,72.92,0,0,1,7.43-11.67,19.71,19.71,0,0,1,9.55-6.37q5.94-1.9,15.7-1.48h34.38a21.6,21.6,0,0,1,9.76,2.12q5.1,2.55,6.16,6.79t-1.49,10.19q-3,5.94-6.36,11.46Q1094,72.36,1069.41,114q-11.9,20.8-24.62,41.6-4.24,8.07-9.34,16.13-10.6,18.67-21.64,36.92a54,54,0,0,0-6.37,16.55l-8.06,45q-6.37,37.78-12.74,76-2.53,14-9.55,20.16t-21.43,5.3H926.8a38.93,38.93,0,0,1-8.49-.85c-4.81-1.12-8.06-3-9.76-5.73s-2.12-6.58-1.27-11.67Q908.56,342.73,910.67,331.68Z" transform="translate(0 102.54)"/><path class="cls-3" d="M266.09,243.78c-14.65,0-28.85-6.49-39.07-18.75-16-19.17-16.57-45.28-1.48-65l24.77-32.31L225.54,95.44c-15.09-19.69-14.5-45.8,1.49-65C242.76,11.6,267.94,6.4,289.69,17.53c.74.37,1.5.79,2.25,1.22l107.2,61.13h0a55.1,55.1,0,0,1,0,95.74L292,236.75c-.77.44-1.52.84-2.27,1.23A51.68,51.68,0,0,1,266.09,243.78Z" transform="translate(0 102.54)"/><g class="cls-4"><circle class="cls-5" cx="317.03" cy="243.73" r="157.07"/><circle class="cls-6" cx="247.81" cy="178.8" r="178.8"/></g><path class="cls-3" d="M745.29,492.91H557.82c-27.86,0-44.39-22.58-36.93-50.44l10.86-40.53c7.47-27.86,36.1-50.44,64-50.44H783.18c27.85,0,44.39,22.58,36.92,50.44l-10.86,40.53C801.78,470.33,773.14,492.91,745.29,492.91Z" transform="translate(0 102.54)"/><g class="cls-7"><circle class="cls-8" cx="765.41" cy="535.77" r="157.07"/><circle class="cls-9" cx="592.21" cy="538.47" r="178.8"/></g><path class="cls-10" d="M580.08,467.4l16.17-91.61a4.87,4.87,0,0,1,1.09-2.18,4.17,4.17,0,0,1,2.12-1.15,11.47,11.47,0,0,1,3.1-.46h42.77a3.8,3.8,0,0,1,2.46,1.26,3.57,3.57,0,0,1,.63,2.87q-.92,6.19-2.17,12.39a5.14,5.14,0,0,1-1.38,2.63,5.25,5.25,0,0,1-2.75,1.38c-.77.07-1.49.11-2.18.11H615.63a1.57,1.57,0,0,0-1.72,1.49,22.85,22.85,0,0,0-.69,2.87l-.57,3.1c-.54,3-1,6.07-1.49,9q-.35,1.73.06,2.13a3.19,3.19,0,0,0,2,.4h15.94a6.19,6.19,0,0,1,1.72,0,4.33,4.33,0,0,1,2.92,1.49,4,4,0,0,1,.41,3.32l-2,11a6.72,6.72,0,0,1-1.9,3.67,5.31,5.31,0,0,1-3.84,1q-5.16.12-10.43,0h-5.73a15,15,0,0,0-2,.12,1.57,1.57,0,0,0-1.49,1.14c-.23.85-.43,1.65-.58,2.41l-5.5,31.53a6.52,6.52,0,0,1-.63,2.3,4.4,4.4,0,0,1-1.61,1.72,6.42,6.42,0,0,1-3,.8q-3,.22-6,.23c-2,0-4.07-.08-6.13-.23-1.53,0-2.54-.4-3-1.21A5.12,5.12,0,0,1,580.08,467.4Z" transform="translate(0 102.54)"/><path class="cls-10" d="M641.9,429.91l2.75-16.17q2.07-11.46,4.25-22.93a19.53,19.53,0,0,1,1.72-6.08,20.65,20.65,0,0,1,6.53-8.43,21.2,21.2,0,0,1,9.63-3.84c1.38-.15,2.81-.26,4.3-.34s2.93-.12,4.3-.12h9.06a26.75,26.75,0,0,1,4.93.46,13.91,13.91,0,0,1,8.89,4.42,13.7,13.7,0,0,1,3.15,9.34,43.26,43.26,0,0,1-.69,6.19q-3.56,20.88-7.22,41.74L690.4,452c-.3,1.37-.65,2.71-1,4a31.92,31.92,0,0,1-1.49,4,21.94,21.94,0,0,1-6.76,8.26,19.1,19.1,0,0,1-9.86,3.56c-2.91.22-5.79.36-8.66.4s-5.75.05-8.66.05c-1.3-.07-2.58-.21-3.84-.4a20.68,20.68,0,0,1-3.61-.86,11.52,11.52,0,0,1-6.65-4.41,15.39,15.39,0,0,1-2.52-7.86,19.07,19.07,0,0,1,.57-5.5Q639.84,441.6,641.9,429.91Zm28.44,20.29,9.74-54.92a3.53,3.53,0,0,0-.11-2.47c-.31-.42-1.07-.63-2.29-.63-1.84-.07-3.67-.07-5.51,0a4.29,4.29,0,0,0-2.63.63,4,4,0,0,0-1.15,2.47l-9.29,52.63c-.15.84-.27,1.65-.34,2.41a1.67,1.67,0,0,0,1.72,1.72q3.78.1,7.91,0a1.79,1.79,0,0,0,1.32-.52A2.28,2.28,0,0,0,670.34,450.2Z" transform="translate(0 102.54)"/><path class="cls-10" d="M693.61,465.8l15.48-87.26a14.29,14.29,0,0,1,.81-3.1,5.66,5.66,0,0,1,1.77-2.52,5.5,5.5,0,0,1,2.93-.92h9.17q10.66-.11,21.21.12a21.56,21.56,0,0,1,7.46,1.26,11.89,11.89,0,0,1,6.93,5.45,16.38,16.38,0,0,1,1.67,9q-.24,2.87-.69,5.79t-1,5.9a11.8,11.8,0,0,0-.23,2.41q-1.5,8.71-3.21,17.43a42.92,42.92,0,0,1-2.18,7.8,21.41,21.41,0,0,1-3,5.27,17.93,17.93,0,0,1-4.64,4.13,3.76,3.76,0,0,0-1.38,1.43,3.6,3.6,0,0,0-.23,1.89q1.14,12.86,2.29,25.8.34,3.56-1.2,5.11t-5.22,1.54H729.73a4.94,4.94,0,0,1-2.86-1.08,4.58,4.58,0,0,1-1.15-2.93q-.57-5.85-1-11.7c-.08-1.6-.19-3.24-.35-4.93-.07-.84-.15-1.72-.23-2.63-.22-2.14-.42-4.32-.57-6.54a2.75,2.75,0,0,0-.92-1.95,3.13,3.13,0,0,0-2.29-.11,2.06,2.06,0,0,0-.69.4,1.42,1.42,0,0,0-.46.63,6,6,0,0,0-.45,1.6l-4.25,24.43a6.53,6.53,0,0,1-1.66,3.38,5.15,5.15,0,0,1-3.5,1.32,111.15,111.15,0,0,1-12.38,0,3.66,3.66,0,0,1-2.81-1.21,4.76,4.76,0,0,1-.74-3.26C693.46,467.06,693.54,466.41,693.61,465.8Zm33.6-70.75-4,22.59c-.16.92-.12,1.51.11,1.78s.8.36,1.72.28q3.56.12,7.11,0a3.41,3.41,0,0,0,2.18-.57,2.84,2.84,0,0,0,.8-2.06q2.07-10.9,3.9-21.9c.23-1,.17-1.67-.17-2a2.87,2.87,0,0,0-2-.52q-3.44-.11-6.88,0a8.26,8.26,0,0,0-1.6.12.91.91,0,0,0-.75.63A15.8,15.8,0,0,0,727.21,395.05Z" transform="translate(0 102.54)"/></g></g></svg>