<svg xmlns="http://www.w3.org/2000/svg" xmlns:xlink="http://www.w3.org/1999/xlink" width="163" height="163" viewBox="0 0 163 163">
  <defs>
    <clipPath id="clip-path">
      <rect id="Rettangolo_66" data-name="Rettangolo 66" width="84.818" height="108.673" fill="#009e53"/>
    </clipPath>
  </defs>
  <circle id="Ellisse_26" data-name="Ellisse 26" cx="81.5" cy="81.5" r="81.5" fill="#ffe300"/>
  <g id="Raggruppa_558" data-name="Raggruppa 558" transform="translate(-1324 -2551)">
    <g id="Raggruppa_79" data-name="Raggruppa 79" transform="translate(1383.129 2559.639)">
      <g id="Raggruppa_78" data-name="Raggruppa 78" transform="translate(-21 18)" clip-path="url(#clip-path)">
        <path id="Tracciato_318" data-name="Tracciato 318" d="M105.52,115a1.988,1.988,0,0,0-1.988,1.988A34.31,34.31,0,0,1,69.26,151.255a1.988,1.988,0,1,0,0,3.976,38.29,38.29,0,0,0,38.248-38.247A1.988,1.988,0,0,0,105.52,115" transform="translate(-39.411 -67.371)" fill="#009e53"/>
        <path id="Tracciato_319" data-name="Tracciato 319" d="M92.833,88.307a6.582,6.582,0,1,0-6.582-6.582,6.589,6.589,0,0,0,6.582,6.582m0-9.187a2.606,2.606,0,1,1-2.606,2.606,2.609,2.609,0,0,1,2.606-2.606" transform="translate(-50.53 -44.023)" fill="#009e53"/>
        <path id="Tracciato_320" data-name="Tracciato 320" d="M35.49,190.343a6.582,6.582,0,1,0,6.582,6.582,6.59,6.59,0,0,0-6.582-6.582m0,9.187a2.606,2.606,0,1,1,2.606-2.606,2.609,2.609,0,0,1-2.606,2.606" transform="translate(-16.936 -111.513)" fill="#009e53"/>
        <path id="Tracciato_321" data-name="Tracciato 321" d="M144.108,81.726a6.582,6.582,0,1,0,6.582-6.582,6.59,6.59,0,0,0-6.582,6.582m6.582-2.606a2.606,2.606,0,1,1-2.606,2.606,2.609,2.609,0,0,1,2.606-2.606" transform="translate(-84.426 -44.023)" fill="#009e53"/>
        <path id="Tracciato_322" data-name="Tracciato 322" d="M57.353,7.952A9.733,9.733,0,0,0,47.8,0H37.02a9.733,9.733,0,0,0-9.555,7.952H0V108.673H84.818V7.952ZM37.02,5.3H47.8a4.423,4.423,0,0,1,4.418,4.417v7.51H32.6V9.718A4.423,4.423,0,0,1,37.02,5.3m42.5,98.07H5.3V13.253h22v3.976H21.2v5.3H63.613v-5.3h-6.1V13.253h22Z" fill="#009e53"/>
        <path id="Tracciato_323" data-name="Tracciato 323" d="M100.412,135.145a1.988,1.988,0,0,0-2.812,0l-2.811,2.811-2.811-2.811a1.988,1.988,0,1,0-2.811,2.811l2.811,2.811-2.811,2.811a1.988,1.988,0,0,0,2.811,2.812l2.811-2.812,2.811,2.812a1.988,1.988,0,1,0,2.811-2.812L97.6,140.768l2.811-2.811a1.988,1.988,0,0,0,0-2.811" transform="translate(-51.897 -78.834)" fill="#009e53"/>
        <path id="Tracciato_324" data-name="Tracciato 324" d="M30.4,146.39a1.989,1.989,0,0,0,2.812,0l2.811-2.812,2.811,2.812a1.988,1.988,0,1,0,2.811-2.812l-2.811-2.811,2.811-2.811a1.988,1.988,0,1,0-2.811-2.811l-2.811,2.811-2.811-2.811a1.988,1.988,0,1,0-2.811,2.811l2.811,2.811L30.4,143.579a1.988,1.988,0,0,0,0,2.811" transform="translate(-17.469 -78.834)" fill="#009e53"/>
        <path id="Tracciato_325" data-name="Tracciato 325" d="M156.845,191.836a1.989,1.989,0,0,0-2.812,0l-2.811,2.811-2.811-2.811a1.988,1.988,0,1,0-2.812,2.812l2.811,2.811L145.6,200.27a1.988,1.988,0,0,0,2.812,2.812l2.811-2.811,2.811,2.811a1.988,1.988,0,0,0,2.812-2.812l-2.811-2.811,2.811-2.811a1.989,1.989,0,0,0,0-2.812" transform="translate(-84.959 -112.046)" fill="#009e53"/>
      </g>
    </g>
  </g>
</svg>
