<svg xmlns="http://www.w3.org/2000/svg" width="269.374" height="159.461" viewBox="0 0 269.374 159.461">
  <g id="Raggruppa_557" data-name="Raggruppa 557" transform="translate(-999.049 -1372.817)">
    <path id="Tracciato_10220" data-name="Tracciato 10220" d="M178.61,75.737a5.7,5.7,0,0,1,6.018-4.782l22.8,0c17.641,0,28.717,10.389,25.009,25.552A31.235,31.235,0,0,1,213,118.189c-1.926.711-3.023,2.238-2.08,3.866l8.848,17.812c1.7,2.748.021,5.4-3.693,5.4l-14.958,0c-2.166,0-3.771-.612-4.433-2.544l-5.937-18.322c-.769-2.341-3.262-1.426-3.909,1.219l-3.784,15.473a5.12,5.12,0,0,1-5.251,4.17l-11.967,0c-2.682,0-3.857-1.529-3.21-4.172Zm14.921,30.945h5.158c6.5,0,11.262-3.864,12.682-9.666,1.395-5.7-1.5-9.464-7.9-9.466h-5.261a2.6,2.6,0,0,0-2.561,2.035l-3.685,15.06a1.489,1.489,0,0,0,1.566,2.037" transform="translate(856.596 1301.862)" fill="#fff"/>
    <path id="Tracciato_10221" data-name="Tracciato 10221" d="M197.376,139.455l15.336-62.693c.921-3.765,3.483-5.8,7.3-5.8l35.283.006c2.682,0,3.854,1.529,3.206,4.176l-1.917,7.836a5.229,5.229,0,0,1-5.274,4.275l-18.879,0a2.521,2.521,0,0,0-2.561,2.035L227.7,98.138c-.3,1.221.224,2.035,1.566,2.035l17.021,0c2.682,0,3.857,1.529,3.21,4.172l-1.893,7.736a5.115,5.115,0,0,1-5.251,4.172l-17.021,0a2.565,2.565,0,0,0-2.586,2.139l-2.092,8.55c-.3,1.219.224,2.037,1.566,2.037l20.529,0c2.682,0,3.833,1.628,3.186,4.271l-1.919,7.84a5.117,5.117,0,0,1-5.251,4.17l-36.932-.006c-3.815,0-5.382-2.037-4.46-5.8" transform="translate(889.451 1301.869)" fill="#fff"/>
    <path id="Tracciato_10222" data-name="Tracciato 10222" d="M152.358,184.782l15.736-64.321c.921-3.767,3.484-5.8,7.3-5.8l22.18,0c18.053,0,29.989,11.1,25.879,27.893-3.958,16.183-21.246,26.97-39.3,26.966h-5.571A2.636,2.636,0,0,0,176,171.657l-3.212,13.13a5.117,5.117,0,0,1-5.251,4.172l-11.965,0c-2.682,0-3.858-1.529-3.212-4.174m30.16-31.344,5.983,0c6.394,0,12.617-5.187,14.01-10.888,1.545-6.31-2.064-11.8-8.459-11.807h-5.983a2.638,2.638,0,0,0-2.587,2.135l-4.53,18.525a1.487,1.487,0,0,0,1.566,2.033" transform="translate(846.865 1343.281)" fill="#fff"/>
    <path id="Tracciato_10223" data-name="Tracciato 10223" d="M186.646,184.179l15.983-65.34a5.12,5.12,0,0,1,5.253-4.174l11.965,0c2.684,0,3.857,1.529,3.21,4.176l-12.325,50.38c-.323,1.323.3,2.135,1.542,2.137l25.067,0c2.682,0,3.855,1.529,3.208,4.172l-2.265,9.265a5.118,5.118,0,0,1-5.249,4.17l-42.709-.008c-3.2,0-4.451-1.628-3.679-4.784" transform="translate(879.316 1343.286)" fill="#fff"/>
    <path id="Tracciato_10224" data-name="Tracciato 10224" d="M216.615,184.182l36.451-63.4c2.466-4.172,5.623-6.108,10.058-6.108l10.418,0c4.334,0,6.669,1.835,7.222,5.9l9.4,63.618c.335,2.849-1.274,4.782-4.47,4.782l-13.1,0c-2.372,0-3.673-1.017-4.028-3.36l-.581-7.327a1.627,1.627,0,0,0-1.611-1.426l-23.83,0a2.549,2.549,0,0,0-2.308,1.424l-3.625,7.224a6.152,6.152,0,0,1-5.592,3.461l-12.175,0c-2.99,0-3.858-1.934-2.232-4.784m36-24.013,11.347,0c1.136,0,2.006-.612,1.815-1.932l-1.722-19.952c-.2-1.73-1.356-1.626-2.374,0l-10.039,19.948c-.58,1.12-.265,1.934.972,1.934" transform="translate(907.161 1343.293)" fill="#fff"/>
    <path id="Tracciato_10225" data-name="Tracciato 10225" d="M260.024,114.676l13.617,0a3.964,3.964,0,0,1,4.283,3.157l4.33,26.16c.275,1.831,1.72,1.831,2.888,0l17.231-26.156a6.777,6.777,0,0,1,5.724-3.155l12.274,0c3.3,0,4.145,2.035,1.876,4.988L290.42,160.792a7.2,7.2,0,0,0-1.57,3.052l-5.13,20.965a5.117,5.117,0,0,1-5.251,4.172l-11.451,0c-2.682,0-3.854-1.529-3.208-4.174l5.105-20.866a5.446,5.446,0,0,0-.057-3.151l-12.944-41.124c-1.032-2.953.808-4.988,4.11-4.988" transform="translate(944.901 1343.297)" fill="#fff"/>
  </g>
</svg>
