<svg xmlns="http://www.w3.org/2000/svg" xmlns:xlink="http://www.w3.org/1999/xlink" width="163" height="163" viewBox="0 0 163 163">
  <defs>
    <clipPath id="clip-path">
      <rect id="Rettangolo_62" data-name="Rettangolo 62" width="122.901" height="90.114" fill="#009e53"/>
    </clipPath>
  </defs>
  <circle id="Ellisse_24" data-name="Ellisse 24" cx="81.5" cy="81.5" r="81.5" fill="#ffe300"/>
  <g id="Raggruppa_560" data-name="Raggruppa 560" transform="translate(-440 -2551)">
    <g id="Raggruppa_74" data-name="Raggruppa 74" transform="translate(462.09 2589.333)">
      <g id="Raggruppa_73" data-name="Raggruppa 73" clip-path="url(#clip-path)">
        <path id="Tracciato_309" data-name="Tracciato 309" d="M88.574,33.392h0a45.045,45.045,0,1,0-4.5,34.181,45.1,45.1,0,0,0,4.5-34.181M74.011,18.674l.014-.343a39.1,39.1,0,0,1,7.207,11.062l-.35-.139L78.76,34.589l-7.933-6.325-2.553-9.821ZM34.862,6.977a39.56,39.56,0,0,1,6.493-1.17l-.209.252,4.417,3.666L37.1,15.315l-10.128-.608,1.993-5.384-.3-.112a39.9,39.9,0,0,1,6.2-2.235M6.807,36.681l4.853-3.068,2.7,9.781-3.707,9.444L6.146,49.28l-.243.308a38.994,38.994,0,0,1,.7-13.229ZM24.9,78.91l.418-.107L23.9,73.24l10.136.455,7.837,6.446L37.1,83.325l.262.392a39.474,39.474,0,0,1-12-4.53c-.154-.089-.3-.186-.454-.277M71.07,74.684l.03-.471-5.729-.369,3.564-9.5,8.551-5.462,1.552,5.527.415-.117c-.087.155-.166.313-.255.466a39.467,39.467,0,0,1-8.129,9.925M81.916,59.039,80.781,55a2.11,2.11,0,0,0-3.168-1.208L66.071,61.165a2.109,2.109,0,0,0-.84,1.037L60.42,75.025a2.11,2.11,0,0,0,1.84,2.847l4.231.273a39.608,39.608,0,0,1-23.436,6.28l3.527-2.352a2.11,2.11,0,0,0,.17-3.386l-10.578-8.7a2.112,2.112,0,0,0-1.246-.479L21.247,68.9a2.111,2.111,0,0,0-2.139,2.63l1.037,4.066A39.112,39.112,0,0,1,7.018,55.347l3.25,2.568a2.11,2.11,0,0,0,3.272-.885l5-12.748a2.109,2.109,0,0,0,.069-1.333l-3.644-13.2a2.111,2.111,0,0,0-3.162-1.222l-3.47,2.194a39.954,39.954,0,0,1,2.589-5.376,39.235,39.235,0,0,1,12.51-13.256l-1.416,3.826a2.11,2.11,0,0,0,1.853,2.839l13.671.82q.063,0,.127,0a2.11,2.11,0,0,0,1.162-.349l11.43-7.546a2.11,2.11,0,0,0,.185-3.385L47.327,5.7a39.575,39.575,0,0,1,22.329,8.571L65.6,14.111a2.11,2.11,0,0,0-2.128,2.639l3.445,13.256a2.108,2.108,0,0,0,.727,1.119l10.708,8.538a2.11,2.11,0,0,0,3.276-.87l1.531-3.848a39.12,39.12,0,0,1-1.246,24.095" transform="translate(0 0)" fill="#009e53"/>
        <path id="Tracciato_310" data-name="Tracciato 310" d="M94.148,71.519,77.635,65.179a2.111,2.111,0,0,0-2.4.642L64.108,79.568a2.11,2.11,0,0,0-.13,2.478l9.633,14.834a2.108,2.108,0,0,0,2.316.889L93.012,93.19a2.11,2.11,0,0,0,1.561-1.928L95.5,73.6a2.11,2.11,0,0,0-1.351-2.08M90.439,89.51,76.316,93.294,68.353,81.032l9.2-11.363,13.65,5.24Z" transform="translate(-35.658 -36.444)" fill="#009e53"/>
        <path id="Tracciato_311" data-name="Tracciato 311" d="M195.241,24.323h33.766a2.11,2.11,0,0,0,0-4.221H195.241a2.11,2.11,0,0,0,0,4.221" transform="translate(-108.218 -11.264)" fill="#009e53"/>
        <path id="Tracciato_312" data-name="Tracciato 312" d="M250.525,70.969H233.641a2.11,2.11,0,0,0,0,4.221h16.883a2.11,2.11,0,0,0,0-4.221" transform="translate(-129.734 -39.766)" fill="#009e53"/>
        <path id="Tracciato_313" data-name="Tracciato 313" d="M212.084,126.057h13.181a2.11,2.11,0,1,0,0-4.221H212.084a2.11,2.11,0,1,0,0,4.221" transform="translate(-117.655 -68.269)" fill="#009e53"/>
        <path id="Tracciato_314" data-name="Tracciato 314" d="M229.008,172.7H195.241a2.11,2.11,0,1,0,0,4.221h33.766a2.11,2.11,0,0,0,0-4.221" transform="translate(-108.218 -96.771)" fill="#009e53"/>
      </g>
    </g>
  </g>
</svg>
