<svg id="Raggruppa_68" data-name="Raggruppa 68" xmlns="http://www.w3.org/2000/svg" xmlns:xlink="http://www.w3.org/1999/xlink" width="174.769" height="75.135" viewBox="0 0 174.769 75.135">
  <defs>
    <clipPath id="clip-path">
      <rect id="Rettangolo_57" data-name="Rettangolo 57" width="174.769" height="75.135" fill="none"/>
    </clipPath>
  </defs>
  <g id="Raggruppa_67" data-name="Raggruppa 67" clip-path="url(#clip-path)">
    <path id="Tracciato_251" data-name="Tracciato 251" d="M67.762,15.933v.142l-.391,2.286q-.085.534-.561.534h-.084c-.186-.038-.468-.075-.841-.112s-.781-.075-1.22-.112-.882-.07-1.33-.1-.851-.042-1.2-.042h-.113c-.186,0-.369.005-.546.014a1.429,1.429,0,0,0-.491.111.867.867,0,0,0-.363.293.944.944,0,0,0-.141.559q0,.447.673.867l3.111,1.985a4.7,4.7,0,0,1,1.766,1.748,3.9,3.9,0,0,1,.448,1.719,5.245,5.245,0,0,1-.575,2.558,4.879,4.879,0,0,1-1.527,1.706,6.232,6.232,0,0,1-2.213.935,11.989,11.989,0,0,1-2.607.28,23.58,23.58,0,0,1-2.564-.153,13.8,13.8,0,0,1-2.423-.464.516.516,0,0,1-.419-.5v-.141l.419-2.27a.578.578,0,0,1,.645-.532h.083q.561.085,1.191.154c.42.047.842.09,1.261.126s.826.066,1.22.084.737.029,1.036.029a3.871,3.871,0,0,0,1.289-.2c.375-.131.561-.485.561-1.064a.969.969,0,0,0-.182-.546,2.37,2.37,0,0,0-.659-.576l-3.278-2.1a3.758,3.758,0,0,1-1.387-1.513,4.148,4.148,0,0,1-.434-1.822,4.945,4.945,0,0,1,.545-2.453,4.265,4.265,0,0,1,1.47-1.541,6.361,6.361,0,0,1,2.1-.812,12.284,12.284,0,0,1,2.437-.237,17.239,17.239,0,0,1,2.663.184,19.851,19.851,0,0,1,2.213.466.493.493,0,0,1,.42.508" transform="translate(-29.431 -8.032)" fill="#35434c"/>
    <path id="Tracciato_252" data-name="Tracciato 252" d="M97.487,11.64v.084l-.42,2.27a.792.792,0,0,1-.239.392.59.59,0,0,1-.406.169h-2.3l-1.458,8.152a5.164,5.164,0,0,0-.084.785.469.469,0,0,0,.169.421,1.186,1.186,0,0,0,.616.112h1.373a.7.7,0,0,1,.364.084.325.325,0,0,1,.14.307V24.5l-.393,2.186a.658.658,0,0,1-.616.561c-.43.075-.812.131-1.149.168a10.244,10.244,0,0,1-1.116.056,4.857,4.857,0,0,1-2.938-.757,3.037,3.037,0,0,1-1.017-2.6,5.833,5.833,0,0,1,.042-.673q.04-.363.1-.757l1.42-8.124L87.4,14.189c-.319-.056-.477-.224-.477-.5V13.6l.308-1.849a.8.8,0,0,1,.267-.408.667.667,0,0,1,.433-.181H90.16l.39-2.3a.65.65,0,0,1,.236-.363,1.1,1.1,0,0,1,.434-.2l3.522-.588h.084q.42,0,.42.393v.082l-.532,2.971h2.3a.422.422,0,0,1,.477.477" transform="translate(-47.247 -4.195)" fill="#35434c"/>
    <path id="Tracciato_253" data-name="Tracciato 253" d="M121.465,15.253v.085L120.987,18a1.111,1.111,0,0,1-.181.364.387.387,0,0,1-.322.169h-.226a7.03,7.03,0,0,0-1.988.28,10.933,10.933,0,0,0-1.795.7l-1.933,10.956a.8.8,0,0,1-.253.405.6.6,0,0,1-.419.183h-3.39a.445.445,0,0,1-.351-.139.486.486,0,0,1-.127-.338v-.111l2.634-14.907a.807.807,0,0,1,.238-.393.588.588,0,0,1,.405-.168h3.337c.317,0,.475.151.475.45v.111l-.112.561a5.179,5.179,0,0,1,1.962-1.108,8.194,8.194,0,0,1,2.044-.237.421.421,0,0,1,.477.476" transform="translate(-59.793 -8.032)" fill="#35434c"/>
    <path id="Tracciato_254" data-name="Tracciato 254" d="M149.186,20.633a6.662,6.662,0,0,1-.041.743c-.03.251-.061.508-.1.77l-.278,1.625q-.14.672-.7.672h-8.995c-.037.206-.067.407-.084.6s-.029.378-.029.547a1.805,1.805,0,0,0,.575,1.527,3.245,3.245,0,0,0,1.92.434q.672,0,1.443-.029c.514-.018,1.018-.036,1.513-.056s.963-.047,1.4-.084.8-.065,1.079-.084h.085c.3,0,.447.121.447.364v.085l-.392,2.128a1.173,1.173,0,0,1-.181.5.875.875,0,0,1-.519.252,25.529,25.529,0,0,1-2.732.5,25.628,25.628,0,0,1-3.152.167,7.245,7.245,0,0,1-2.185-.335,5.523,5.523,0,0,1-1.891-1.023,4.875,4.875,0,0,1-1.317-1.752,5.985,5.985,0,0,1-.49-2.521,7.285,7.285,0,0,1,.042-.757c.029-.26.06-.533.1-.813l.334-1.96a9.125,9.125,0,0,1,2.776-5.521,8.247,8.247,0,0,1,5.6-1.848,6.482,6.482,0,0,1,2.507.448,4.991,4.991,0,0,1,1.807,1.247,5.257,5.257,0,0,1,1.094,1.863,7.066,7.066,0,0,1,.364,2.3m-4.23-.225a2.009,2.009,0,0,0-.5-1.485,2.324,2.324,0,0,0-1.682-.5,2.682,2.682,0,0,0-2.173.884,5.276,5.276,0,0,0-1.049,2.339h5.269c.037-.225.07-.44.1-.645a4.3,4.3,0,0,0,.042-.589" transform="translate(-73.141 -8.032)" fill="#35434c"/>
    <path id="Tracciato_255" data-name="Tracciato 255" d="M185.4,20.633a6.892,6.892,0,0,1-.041.743q-.045.377-.1.77l-.282,1.625c-.092.448-.326.672-.7.672h-8.995c-.037.206-.066.407-.083.6s-.03.378-.03.547a1.8,1.8,0,0,0,.576,1.527,3.242,3.242,0,0,0,1.919.434q.672,0,1.443-.029c.513-.018,1.017-.036,1.511-.056s.964-.047,1.4-.084.8-.065,1.08-.084h.084c.3,0,.448.121.448.364v.085l-.393,2.128a1.172,1.172,0,0,1-.182.5.873.873,0,0,1-.519.252,25.489,25.489,0,0,1-2.733.5,25.623,25.623,0,0,1-3.152.167,7.246,7.246,0,0,1-2.185-.335,5.565,5.565,0,0,1-1.893-1.023,4.9,4.9,0,0,1-1.317-1.752,5.978,5.978,0,0,1-.49-2.521,7.168,7.168,0,0,1,.042-.757c.028-.26.06-.533.1-.813l.336-1.96a9.118,9.118,0,0,1,2.774-5.521,8.25,8.25,0,0,1,5.6-1.848,6.489,6.489,0,0,1,2.508.448,5.022,5.022,0,0,1,1.807,1.247,5.26,5.26,0,0,1,1.092,1.863,7.042,7.042,0,0,1,.366,2.3m-4.232-.225a2.017,2.017,0,0,0-.5-1.485,2.328,2.328,0,0,0-1.682-.5,2.675,2.675,0,0,0-2.173.884,5.256,5.256,0,0,0-1.049,2.339h5.266c.037-.225.07-.44.1-.645a4.441,4.441,0,0,0,.041-.589" transform="translate(-92.827 -8.032)" fill="#35434c"/>
    <path id="Tracciato_256" data-name="Tracciato 256" d="M218.3,11.64v.084l-.42,2.27a.769.769,0,0,1-.239.392.59.59,0,0,1-.405.169h-2.3l-1.458,8.152a5.224,5.224,0,0,0-.084.785.471.471,0,0,0,.168.421,1.2,1.2,0,0,0,.618.112h1.373a.693.693,0,0,1,.363.084.329.329,0,0,1,.141.307V24.5l-.393,2.186a.66.66,0,0,1-.617.561c-.43.075-.813.131-1.147.168a10.349,10.349,0,0,1-1.117.056,4.86,4.86,0,0,1-2.939-.757,3.044,3.044,0,0,1-1.017-2.6,6.046,6.046,0,0,1,.042-.673q.043-.363.1-.757l1.419-8.124-2.176-.366q-.474-.084-.474-.5V13.6l.308-1.849a.792.792,0,0,1,.265-.408.675.675,0,0,1,.435-.181h2.229l.389-2.3A.634.634,0,0,1,211.6,8.5a1.083,1.083,0,0,1,.432-.2l3.522-.588h.084c.279,0,.421.131.421.393v.082l-.532,2.971h2.3a.421.421,0,0,1,.477.477" transform="translate(-112.916 -4.195)" fill="#35434c"/>
    <path id="Tracciato_257" data-name="Tracciato 257" d="M6,75.141,5.03,80.689a.828.828,0,0,1-.252.408.609.609,0,0,1-.419.184H.967a.447.447,0,0,1-.35-.141A.49.49,0,0,1,.492,80.8v-.114l1.667-9.5.448-2.547-2.13-.335a.637.637,0,0,1-.336-.155A.486.486,0,0,1,0,67.775a.277.277,0,0,1,.015-.1.369.369,0,0,0,.014-.1l.308-1.738a.73.73,0,0,1,.211-.462.715.715,0,0,1,.461-.126H3.194l.168-1.009a7.96,7.96,0,0,1,.771-2.522,4.079,4.079,0,0,1,1.26-1.457,4.326,4.326,0,0,1,1.7-.672,12.294,12.294,0,0,1,2.13-.168,6.018,6.018,0,0,1,1.022.084c.327.057.65.112.968.17a1.21,1.21,0,0,1,.309.153.309.309,0,0,1,.14.266v.084l-.365,2.074a.979.979,0,0,1-.168.391.557.557,0,0,1-.448.141H9.219a1.207,1.207,0,0,0-.9.267,2.417,2.417,0,0,0-.394,1.191l-.167,1.009h2.382a.509.509,0,0,1,.392.126.426.426,0,0,1,.112.293.218.218,0,0,1-.013.085.183.183,0,0,0-.014.084l-.393,2.24a.713.713,0,0,1-.2.45.77.77,0,0,1-.477.112H7.172Z" transform="translate(0 -32.3)" fill="#ec6608"/>
    <path id="Tracciato_258" data-name="Tracciato 258" d="M37.24,77.363a8.049,8.049,0,0,1-.055.882c-.038.325-.075.573-.113.743l-.364,1.96a9.779,9.779,0,0,1-2.62,5.423,7.892,7.892,0,0,1-5.673,1.864,6.774,6.774,0,0,1-2.522-.435,5.405,5.405,0,0,1-1.851-1.19A4.871,4.871,0,0,1,22.91,84.8a6.643,6.643,0,0,1-.379-2.284c0-.259.008-.519.028-.784a5.455,5.455,0,0,1,.112-.785l.364-1.96A9.307,9.307,0,0,1,25.81,73.44,8.233,8.233,0,0,1,31.328,71.7a5.9,5.9,0,0,1,4.385,1.541,5.6,5.6,0,0,1,1.527,4.12m-4.568.335q0-2.129-2.035-2.13a2.663,2.663,0,0,0-1.992.786,5.034,5.034,0,0,0-1.1,2.634l-.363,1.96c-.039.263-.071.5-.1.715a4.684,4.684,0,0,0-.043.63,2.185,2.185,0,0,0,.5,1.6,2.114,2.114,0,0,0,1.56.5,2.486,2.486,0,0,0,2.063-.869,5.717,5.717,0,0,0,1-2.579l.362-1.96a7.584,7.584,0,0,0,.14-1.289" transform="translate(-12.247 -38.973)" fill="#ec6608"/>
    <path id="Tracciato_259" data-name="Tracciato 259" d="M72.231,77.363a7.722,7.722,0,0,1-.055.882q-.058.488-.113.743l-.365,1.96A9.787,9.787,0,0,1,69.08,86.37,7.9,7.9,0,0,1,63.4,88.234a6.766,6.766,0,0,1-2.521-.435,5.363,5.363,0,0,1-1.849-1.19A4.855,4.855,0,0,1,57.9,84.8a6.709,6.709,0,0,1-.377-2.284c0-.259.01-.519.028-.784a5.943,5.943,0,0,1,.112-.785l.364-1.96A9.3,9.3,0,0,1,60.8,73.44,8.243,8.243,0,0,1,66.319,71.7a5.911,5.911,0,0,1,4.387,1.541,5.6,5.6,0,0,1,1.526,4.12m-4.567.335q0-2.129-2.035-2.13a2.666,2.666,0,0,0-1.993.786,5.034,5.034,0,0,0-1.1,2.634l-.36,1.96c-.039.263-.071.5-.1.715a4.757,4.757,0,0,0-.042.63,2.191,2.191,0,0,0,.5,1.6,2.121,2.121,0,0,0,1.562.5,2.489,2.489,0,0,0,2.063-.869,5.748,5.748,0,0,0,1-2.579l.362-1.96a7.553,7.553,0,0,0,.141-1.289" transform="translate(-31.266 -38.973)" fill="#ec6608"/>
    <path id="Tracciato_260" data-name="Tracciato 260" d="M103.443,68.565v.084l-.421,2.27a.787.787,0,0,1-.238.393.587.587,0,0,1-.4.168h-2.3l-1.457,8.153a5.228,5.228,0,0,0-.084.786.473.473,0,0,0,.168.421,1.208,1.208,0,0,0,.617.11H100.7a.7.7,0,0,1,.365.083.337.337,0,0,1,.14.311v.084l-.393,2.184a.659.659,0,0,1-.615.562c-.431.073-.812.129-1.149.168a10.042,10.042,0,0,1-1.116.056,4.888,4.888,0,0,1-2.939-.757,3.05,3.05,0,0,1-1.016-2.608,5.8,5.8,0,0,1,.042-.67c.028-.245.06-.494.1-.757l1.42-8.126-2.177-.365c-.317-.056-.476-.225-.476-.5v-.084l.309-1.85a.782.782,0,0,1,.267-.406.656.656,0,0,1,.434-.181h2.227l.39-2.3a.64.64,0,0,1,.237-.366,1.078,1.078,0,0,1,.433-.2l3.52-.589h.085c.28,0,.42.131.42.393v.084l-.532,2.971h2.3a.42.42,0,0,1,.477.475" transform="translate(-50.485 -35.136)" fill="#ec6608"/>
    <path id="Tracciato_261" data-name="Tracciato 261" d="M131.616,71.1a7.284,7.284,0,0,1-.042.784c-.028.262-.06.522-.1.786l-.365,2.185a8.661,8.661,0,0,1-2.73,5.464,8.568,8.568,0,0,1-5.592,1.71,22.855,22.855,0,0,1-3.137-.21,23.09,23.09,0,0,1-2.69-.52,1.636,1.636,0,0,1-.6-.238.428.428,0,0,1-.154-.351.723.723,0,0,1,.028-.223l3.473-19.644a.764.764,0,0,1,.253-.392.64.64,0,0,1,.421-.168h3.391a.42.42,0,0,1,.474.476v.084l-.868,4.849c.431-.057.853-.1,1.276-.142s.77-.056,1.051-.056a7.452,7.452,0,0,1,2.562.407,5.011,5.011,0,0,1,1.85,1.149,4.857,4.857,0,0,1,1.121,1.765,6.576,6.576,0,0,1,.377,2.284m-4.568.189a2.324,2.324,0,0,0-.434-1.509,1.962,1.962,0,0,0-1.585-.53c-.335,0-.719.014-1.148.042s-.821.062-1.177.1l-1.54,8.715c.261.039.587.073.98.112s.823.056,1.289.056a2.558,2.558,0,0,0,2.157-.865,5.718,5.718,0,0,0,.953-2.571l.365-2.179c.036-.26.07-.5.1-.726a5.184,5.184,0,0,0,.042-.642" transform="translate(-63.164 -32.768)" fill="#ec6608"/>
    <path id="Tracciato_262" data-name="Tracciato 262" d="M168.51,73.019a.742.742,0,0,1-.029.224l-2.465,14.179a.792.792,0,0,1-.237.392.587.587,0,0,1-.408.166h-2.858a.455.455,0,0,1-.351-.136.486.486,0,0,1-.126-.334v-.082l.112-.806a7.859,7.859,0,0,1-2.185,1.249,6.461,6.461,0,0,1-2.158.363,4.786,4.786,0,0,1-2.156-.449,4.082,4.082,0,0,1-1.457-1.19,4.958,4.958,0,0,1-.826-1.726,7.576,7.576,0,0,1-.267-2.014,7.06,7.06,0,0,1,.043-.785c.028-.263.061-.524.1-.784.056-.414.121-.786.2-1.122q.084-.448.153-.883c.047-.289.081-.5.1-.632a8.108,8.108,0,0,1,2.8-5.309,8.771,8.771,0,0,1,5.464-1.64,22.484,22.484,0,0,1,2.929.2q1.5.2,2.871.5a2.079,2.079,0,0,1,.559.2.442.442,0,0,1,.2.42m-4.988,2.606c-.262-.038-.588-.074-.98-.112s-.785-.056-1.178-.056a2.641,2.641,0,0,0-2.2.868,5.842,5.842,0,0,0-.994,2.579l-.5,2.942a5.055,5.055,0,0,0-.083.923,2.2,2.2,0,0,0,.322,1.206,1.4,1.4,0,0,0,1.273.5,4.173,4.173,0,0,0,1.5-.294,10.9,10.9,0,0,0,1.471-.686Z" transform="translate(-83.218 -38.973)" fill="#ec6608"/>
    <path id="Tracciato_263" data-name="Tracciato 263" d="M196.335,60.732v.111l-3.586,20.345a.863.863,0,0,1-.238.4.569.569,0,0,1-.406.181h-3.419a.456.456,0,0,1-.351-.138.523.523,0,0,1-.127-.364v-.084L191.8,60.844a.761.761,0,0,1,.251-.391.64.64,0,0,1,.422-.168h3.417a.4.4,0,0,1,.449.448" transform="translate(-102.301 -32.768)" fill="#ec6608"/>
    <path id="Tracciato_264" data-name="Tracciato 264" d="M213.651,60.732v.111l-3.588,20.345a.871.871,0,0,1-.238.4.566.566,0,0,1-.406.181H206a.457.457,0,0,1-.351-.138.532.532,0,0,1-.124-.364v-.084l3.586-20.345a.748.748,0,0,1,.251-.391.638.638,0,0,1,.421-.168H213.2a.4.4,0,0,1,.45.448" transform="translate(-111.714 -32.768)" fill="#ec6608"/>
    <path id="Tracciato_265" data-name="Tracciato 265" d="M113.709,129.245a.708.708,0,0,1-.028.222L108.8,142.973a2.761,2.761,0,0,1-1.177,1.583,3.467,3.467,0,0,1-1.625.377h-1.709a2.034,2.034,0,0,1-1.5-.489,1.952,1.952,0,0,1-.546-1.3l-.589-7.314c0-.093-.038-.139-.112-.139s-.131.047-.168.139l-3.166,7.314a3.036,3.036,0,0,1-.993,1.3,2.712,2.712,0,0,1-1.669.489H93.842a3.813,3.813,0,0,1-.826-.083,1.85,1.85,0,0,1-.672-.294,1.389,1.389,0,0,1-.462-.6,2.506,2.506,0,0,1-.168-.98L91.6,129.467a.621.621,0,0,1,.153-.407.48.48,0,0,1,.379-.183h3.278a.8.8,0,0,1,.378.071q.126.07.126.379v.027l-.2,10.7v.027c0,.224.037.336.111.336s.168-.12.28-.363l3.251-7.454a2.138,2.138,0,0,1,.715-.994,1.926,1.926,0,0,1,1.079-.269h2.3a1.474,1.474,0,0,1,.98.269,1.434,1.434,0,0,1,.365.994l.56,7.4c.018.246.066.365.141.365s.158-.12.252-.365l3.531-10.647a.7.7,0,0,1,.267-.392.854.854,0,0,1,.405-.085h3.418c.226,0,.337.123.337.367" transform="translate(-49.791 -70.052)" fill="#35434c"/>
    <path id="Tracciato_266" data-name="Tracciato 266" d="M153.454,134.049a7.708,7.708,0,0,1-.056.88c-.039.33-.074.576-.113.744l-.365,1.962a9.792,9.792,0,0,1-2.617,5.423,7.91,7.91,0,0,1-5.675,1.863,6.751,6.751,0,0,1-2.521-.435,5.4,5.4,0,0,1-1.85-1.191,4.883,4.883,0,0,1-1.136-1.806,6.715,6.715,0,0,1-.377-2.284c0-.262.009-.524.028-.786a5.782,5.782,0,0,1,.112-.785l.365-1.962a9.307,9.307,0,0,1,2.773-5.546,8.249,8.249,0,0,1,5.52-1.739,5.908,5.908,0,0,1,4.386,1.542,5.6,5.6,0,0,1,1.527,4.119m-4.567.337q0-2.131-2.035-2.131a2.667,2.667,0,0,0-1.994.785,5.043,5.043,0,0,0-1.1,2.633l-.361,1.962c-.038.261-.071.5-.1.714a4.844,4.844,0,0,0-.042.63,2.2,2.2,0,0,0,.5,1.6,2.127,2.127,0,0,0,1.563.505,2.484,2.484,0,0,0,2.063-.87,5.727,5.727,0,0,0,1-2.577l.363-1.962a7.533,7.533,0,0,0,.14-1.287" transform="translate(-75.415 -69.786)" fill="#35434c"/>
    <path id="Tracciato_267" data-name="Tracciato 267" d="M184.027,128.865v.086l-.476,2.659a1.105,1.105,0,0,1-.182.365.391.391,0,0,1-.322.17h-.225a7.037,7.037,0,0,0-1.988.278,10.931,10.931,0,0,0-1.794.7l-1.933,10.956a.836.836,0,0,1-.253.406.6.6,0,0,1-.419.182h-3.392a.444.444,0,0,1-.35-.139.492.492,0,0,1-.126-.337v-.112l2.633-14.907a.793.793,0,0,1,.24-.393.583.583,0,0,1,.405-.168h3.335c.318,0,.476.149.476.45v.112l-.111.561a5.169,5.169,0,0,1,1.96-1.107,8.209,8.209,0,0,1,2.046-.238.422.422,0,0,1,.476.477" transform="translate(-93.8 -69.786)" fill="#35434c"/>
    <path id="Tracciato_268" data-name="Tracciato 268" d="M203.774,117.423v.112l-3.587,20.341a.867.867,0,0,1-.238.407.558.558,0,0,1-.406.182h-3.419a.448.448,0,0,1-.351-.139.525.525,0,0,1-.126-.365v-.084l3.586-20.341a.76.76,0,0,1,.252-.393.628.628,0,0,1,.422-.168h3.416a.4.4,0,0,1,.45.45" transform="translate(-106.345 -63.581)" fill="#35434c"/>
    <path id="Tracciato_269" data-name="Tracciato 269" d="M229.256,117.448v.085l-3.474,19.64a.854.854,0,0,1-.239.505,1.884,1.884,0,0,1-.769.308,27.375,27.375,0,0,1-2.859.52,24.927,24.927,0,0,1-3.223.21,6.92,6.92,0,0,1-2.494-.421,4.942,4.942,0,0,1-2.969-2.984,6.55,6.55,0,0,1-.394-2.31c0-.243.009-.483.029-.715s.046-.483.083-.742l.367-2.187q.641-3.866,2.646-5.519a8.629,8.629,0,0,1,5.648-1.654c.279,0,.629.021,1.05.056s.828.085,1.219.141l.869-4.847a.779.779,0,0,1,.237-.393.577.577,0,0,1,.406-.168h3.363a.516.516,0,0,1,.364.125.446.446,0,0,1,.141.351m-6.023,8.63c-.32-.038-.692-.069-1.123-.1s-.812-.043-1.148-.043a3.562,3.562,0,0,0-1.289.208,2.314,2.314,0,0,0-.9.629,3.242,3.242,0,0,0-.589,1.063,9.029,9.029,0,0,0-.362,1.51l-.366,2.176c-.037.278-.069.545-.1.8a6.324,6.324,0,0,0-.042.684,2.157,2.157,0,0,0,.434,1.469,2.106,2.106,0,0,0,1.612.487c.466,0,.9-.017,1.3-.056s.744-.075,1.026-.112Z" transform="translate(-115.688 -63.581)" fill="#35434c"/>
    <path id="Tracciato_270" data-name="Tracciato 270" d="M278.562,8.265c.241.313.667.19,1.317-.164a39.211,39.211,0,0,1,6.969-2.954,3.78,3.78,0,0,0-1.206,2.547c-.033,1.537,3.152,4.251,10.069,4.118s9.825-2.679,9.941-4.583-1.814-3.414-1.814-3.414a38.883,38.883,0,0,1,11.532,3.667c.662.33,1.091.438,1.321.118.177-.249-.058-.763-.683-1.315C311.15,2,304.475-.116,297.487,0S283.9,2.473,279.2,6.927c-.607.575-.821,1.1-.636,1.338" transform="translate(-151.379 0)" fill="#35434c" fill-rule="evenodd"/>
    <path id="Tracciato_271" data-name="Tracciato 271" d="M280.382,99.514c.828-.107,1.306-.406,1.3-.709-.01-.395-.428-.544-1.162-.641a39.521,39.521,0,0,1-7.375-1.7,2.566,2.566,0,0,0,2.475-1.354c.649-1.5-.5-6.146-5.727-9.247s-9.5-3.537-10.735-2.139-.539,3.828-.539,3.828a38.88,38.88,0,0,1-7.173-9.742c-.343-.658-.625-1-1-.872-.288.1-.4.649-.22,1.465,1.41,6.325,5.568,11.958,11.29,15.968s12.443,5.985,18.867,5.148" transform="translate(-135.963 -41.803)" fill="#35434c" fill-rule="evenodd"/>
    <path id="Tracciato_272" data-name="Tracciato 272" d="M337.986,80.6c-.377-.112-.649.239-.969.907a39.412,39.412,0,0,1-3.9,6.487,2.56,2.56,0,0,0-.521-2.769c-1.22-1.223-5.6-1.491-10.566,2.585s-6.44,7.956-5.348,9.551a4.876,4.876,0,0,0,3.473,1.7,38.862,38.862,0,0,1-11.48,3.809c-.731.123-1.142.286-1.138.681,0,.308.49.583,1.324.663,6.45.616,13.09-1.6,18.675-5.8s9.537-9.984,10.724-16.354c.155-.821.02-1.369-.271-1.455" transform="translate(-167.162 -43.797)" fill="#35434c" fill-rule="evenodd"/>
    <path id="Tracciato_273" data-name="Tracciato 273" d="M293.608,47.553a3.242,3.242,0,0,0-1.182,3.561l2.993,8.342a3.622,3.622,0,0,0,3.146,2.267l9.063,0a3.654,3.654,0,0,0,3.167-2.253l2.888-8.356a3.282,3.282,0,0,0-1.156-3.584L305,42.447a3.971,3.971,0,0,0-3.976-.03Z" transform="translate(-158.868 -22.774)" fill="#35434c" fill-rule="evenodd"/>
    <path id="Tracciato_274" data-name="Tracciato 274" d="M256.136,42.65c.372-.131.388-.574.252-1.3a39.468,39.468,0,0,1-.657-7.54,2.575,2.575,0,0,0,2.05,1.936c1.644.192,5.746-1.932,7.027-8.305s.4-10.157-1.285-10.869-3.808.67-3.808.67A38.85,38.85,0,0,1,266.764,7.4c.52-.529.755-.9.521-1.22-.18-.245-.739-.183-1.461.242-5.579,3.3-9.65,8.988-11.7,15.672s-1.848,13.682.934,19.534c.358.755.789,1.118,1.074,1.017" transform="translate(-137.39 -3.284)" fill="#35434c" fill-rule="evenodd"/>
    <path id="Tracciato_275" data-name="Tracciato 275" d="M362.511,49.447c2.576-5.946,2.525-12.944.253-19.556s-6.548-12.154-12.239-15.253c-.734-.4-1.3-.44-1.468-.191-.222.323.026.691.564,1.2a39.484,39.484,0,0,1,4.964,5.715s-.844-.877-2.8-.362-2.858,5.051-.8,10.85,5.037,8.038,7.43,8.038,2.685-2.779,2.685-2.779a38.8,38.8,0,0,1,.078,12.1c-.11.733-.079,1.175.3,1.291.291.095.709-.286,1.039-1.052" transform="translate(-189.688 -7.768)" fill="#ec6608" fill-rule="evenodd"/>
  </g>
</svg>
