<svg id="Raggruppa_71" data-name="Raggruppa 71" xmlns="http://www.w3.org/2000/svg" xmlns:xlink="http://www.w3.org/1999/xlink" width="219.435" height="78.381" viewBox="0 0 219.435 78.381">
  <defs>
    <clipPath id="clip-path">
      <rect id="Rettangolo_61" data-name="Rettangolo 61" width="219.435" height="78.381" fill="none"/>
    </clipPath>
  </defs>
  <rect id="Rettangolo_58" data-name="Rettangolo 58" width="210.007" height="4.312" transform="translate(0.168 17.932)" fill="#339f66"/>
  <rect id="Rettangolo_59" data-name="Rettangolo 59" width="210.007" height="4.31" transform="translate(0.168 52.894)" fill="#49b9db"/>
  <path id="Tracciato_276" data-name="Tracciato 276" d="M151.818,58.843h4.341l10.024,13.171V58.843h4.645V80.236h-4l-10.361-13.6V74.3h-4.645Z" transform="translate(-82.522 -31.984)" fill="#ffb72d"/>
  <path id="Tracciato_277" data-name="Tracciato 277" d="M299.358,63.09h-6.507V58.843h17.726V63.09h-6.511V74.352h-4.708Z" transform="translate(-159.181 -31.984)" fill="#e95c29"/>
  <path id="Tracciato_278" data-name="Tracciato 278" d="M.367,58.843V74.321H5.076V71.955H15.284V67.676H5.076V63.12H16.659V58.843Z" transform="translate(-0.2 -31.984)" fill="#e95c29"/>
  <g id="Raggruppa_70" data-name="Raggruppa 70">
    <g id="Raggruppa_69" data-name="Raggruppa 69" clip-path="url(#clip-path)">
      <path id="Tracciato_279" data-name="Tracciato 279" d="M5.045,98.208a2.523,2.523,0,1,1-2.522-2.522,2.523,2.523,0,0,1,2.522,2.522" transform="translate(0.001 -52.011)" fill="#de2a65"/>
      <path id="Tracciato_280" data-name="Tracciato 280" d="M272.284,87.158a2.522,2.522,0,1,1-2.522-2.521,2.522,2.522,0,0,1,2.522,2.521" transform="translate(-145.26 -46.005)" fill="#e95c29"/>
      <path id="Tracciato_281" data-name="Tracciato 281" d="M156.424,98.208a2.522,2.522,0,1,1-2.522-2.522,2.522,2.522,0,0,1,2.522,2.522" transform="translate(-82.283 -52.011)" fill="#49b9db"/>
      <path id="Tracciato_282" data-name="Tracciato 282" d="M208.534,79.314a2.522,2.522,0,1,1-2.522-2.522,2.521,2.521,0,0,1,2.522,2.522" transform="translate(-110.608 -41.741)" fill="#de2a65"/>
      <path id="Tracciato_283" data-name="Tracciato 283" d="M311.782,98.208a2.522,2.522,0,1,1-2.526-2.522,2.524,2.524,0,0,1,2.526,2.522" transform="translate(-166.729 -52.011)" fill="#de2a65"/>
      <path id="Tracciato_284" data-name="Tracciato 284" d="M345.5,60.347a2.522,2.522,0,1,1-2.521-2.52,2.524,2.524,0,0,1,2.521,2.52" transform="translate(-185.059 -31.432)" fill="#004b98"/>
      <path id="Tracciato_285" data-name="Tracciato 285" d="M57.565,58.888v5.324a6.491,6.491,0,1,1-7.661,0V58.888a11.222,11.222,0,1,0,7.661,0" transform="translate(-23.108 -32.009)" fill="#d0d66d"/>
      <path id="Tracciato_286" data-name="Tracciato 286" d="M66.619,60.349A2.522,2.522,0,1,1,64.1,57.827a2.521,2.521,0,0,1,2.522,2.522" transform="translate(-33.469 -31.432)" fill="#004897"/>
      <rect id="Rettangolo_60" data-name="Rettangolo 60" width="4.704" height="15.503" transform="translate(155.57 32.749)" fill="#de2a65"/>
      <path id="Tracciato_287" data-name="Tracciato 287" d="M345.5,60.349a2.522,2.522,0,1,1-2.521-2.522,2.521,2.521,0,0,1,2.521,2.522" transform="translate(-185.059 -31.432)" fill="#004897"/>
      <path id="Tracciato_288" data-name="Tracciato 288" d="M212.221,58.843h-8.342v6.864h4.7V63.09h3.637a6.145,6.145,0,0,1,6.45,6.45V69.6a6.1,6.1,0,0,1-6.45,6.388h-3.637V73.342h-4.7v6.894h8.342c6.726,0,11.371-4.676,11.371-10.7v-.061c0-6.023-4.645-10.635-11.371-10.635" transform="translate(-110.819 -31.984)" fill="#339f66"/>
      <path id="Tracciato_289" data-name="Tracciato 289" d="M261.435,58.87h-4.341l-9.167,21.38h4.8L259.2,64.524l6.478,15.726H270.6Z" transform="translate(-134.762 -31.999)" fill="#49b9db"/>
      <path id="Tracciato_290" data-name="Tracciato 290" d="M419.02,58.843h4.341l10.025,13.171V58.843h4.643V80.236h-4l-10.36-13.6V74.3H419.02Z" transform="translate(-227.76 -31.984)" fill="#004897"/>
      <path id="Tracciato_291" data-name="Tracciato 291" d="M423.624,98.208a2.522,2.522,0,1,1-2.522-2.522,2.522,2.522,0,0,1,2.522,2.522" transform="translate(-227.521 -52.011)" fill="#49b9db"/>
      <path id="Tracciato_292" data-name="Tracciato 292" d="M375.662,58.888v5.324a6.492,6.492,0,1,1-7.664,0V58.888a11.222,11.222,0,1,0,7.664,0" transform="translate(-196.011 -32.009)" fill="#e95c29"/>
      <path id="Tracciato_293" data-name="Tracciato 293" d="M384.708,60.349a2.522,2.522,0,1,1-2.522-2.522,2.52,2.52,0,0,1,2.522,2.522" transform="translate(-206.368 -31.432)" fill="#ffb72d"/>
      <path id="Tracciato_294" data-name="Tracciato 294" d="M130.362,58.843v12.35c0,1.7-.069,2.986-.786,3.844v5.172c3.7-1.083,5.493-4.126,5.493-9.2V58.843Z" transform="translate(-70.432 -31.984)" fill="#004897"/>
      <path id="Tracciato_295" data-name="Tracciato 295" d="M105.471,71.053V58.869h-4.706V71.176c0,4.949,1.784,7.986,5.487,9.059v-5.3c-.691-.885-.781-2.179-.781-3.878" transform="translate(-54.771 -31.999)" fill="#004897"/>
      <path id="Tracciato_296" data-name="Tracciato 296" d="M120.65,98.208a2.522,2.522,0,1,1-2.521-2.522,2.522,2.522,0,0,1,2.521,2.522" transform="translate(-62.838 -52.011)" fill="#339f66"/>
      <path id="Tracciato_297" data-name="Tracciato 297" d="M12.47,4.111c-3.822,7.055-1.752,8.117-2.52,9.582a.688.688,0,0,1-1.161.1c-.3-.463-.43-3.275,1.119-6.568.139-.3.1-.66-.242-.3-.212.22-6.073,7.491-8.248,6.863C.726,13.583.155,13.062.341,11.8A39.461,39.461,0,0,1,3.926,1.488c.889-1.572,1.825-.834,1.248.377-1.4,2.933-3.958,9.4-2.79,9.966.64.31,3.564-1.728,9.18-9.179C12,2.07,13.7,1.84,12.47,4.111" transform="translate(-0.166 -0.322)" fill="#040405"/>
      <path id="Tracciato_298" data-name="Tracciato 298" d="M87.27,7.818a17.816,17.816,0,0,0-2.925.3.021.021,0,0,1-.015,0c-.057-1.251.031-4.8-.7-5.054-1.038-.358-5.554,6.587-5.554,6.587s-2.079.421-2.012,1.185c.044.5.686.4.686.4s-1.212,1.414-1.794,2.2A3.876,3.876,0,0,0,73.9,15.4c-.027.577.972,1.05,1.7-.251a24.829,24.829,0,0,1,2.8-4.162,39.613,39.613,0,0,1,4.664-1.463s.213,2.929.466,4.084c.229,1.053.63,1.323,1.055,1.323s.6-.642.457-1.241a18.4,18.4,0,0,1-.645-4.544s2.054-.487,2.594-.617c.666-.159.836-.73.285-.71M82.431,6.107c.318-.352.4-.325.417.029.033.854.121,2.23.121,2.23l-3.178.8s2.1-2.464,2.64-3.06" transform="translate(-40.168 -1.659)" fill="#040405"/>
      <path id="Tracciato_299" data-name="Tracciato 299" d="M40.148.434c-2.719-1.378-8.841.9-9.784,1.73-.187.166-.115.343.4.707.209.149.252.244.136.634-.488,1.713-1.055,3.086-1.171,3.412-.184.528-1.409.62-.966,1.282.259.388.4.428.267.921-.151.554-1.021,2.77-.576,3.82,1.045,2.476,5.084.762,7.26-.993.579-.466,2.086-2.282-1.541-.141-.828.489-3.03,1.512-3.964.7-1.128-.985.67-4.112.67-4.112a23.336,23.336,0,0,1,5.266-1.658c.26-.032.615-.442.2-.623-1.7-.739-5.01.862-4.676-.177.143-.442,1-3.489,1-3.489a24.926,24.926,0,0,1,7-1.256c.38-.006.691-.01.822-.139s.065-.412-.336-.615" transform="translate(-15.398 0)" fill="#040405"/>
      <path id="Tracciato_300" data-name="Tracciato 300" d="M67.017,1.334C66.592.485,63.9.677,60.865,1.176c-3.422.561-6.969,1.814-6.813,2.706.041.234.332.43.956.323.255-.043.664-.141,1.123-.258-.323,1.113-1,3.11-1.1,3.329-.436,1.143-3.189,1.262-3.175,2.311.01.689,2.294.157,2.294.157s-.991,3.151-1.3,4.35c-.141.554.369,1.04.807.178.762-1.5,2.164-5.031,2.164-5.031A57.5,57.5,0,0,1,62.54,7.362c.451-.114,1.01-.716.039-.709a33.619,33.619,0,0,0-6.151.809s1.157-3.335,1.389-3.971c3.56-1.575,9.61-1.337,9.2-2.157" transform="translate(-28.187 -0.407)" fill="#040405"/>
      <path id="Tracciato_301" data-name="Tracciato 301" d="M397.59,143.722c.262-.021.432-.45.527-.765.117-.389-.078-1.234-.817-.212,0,0-.842,1.054.29.977" transform="translate(-215.791 -77.325)" fill="#040405"/>
      <path id="Tracciato_302" data-name="Tracciato 302" d="M323.262,139.47c.4-.091.255-.435-.188-.415a13.739,13.739,0,0,0-3.255.7s.838-3.373,3.385-3.864c.355-.069,1.056-.176.827-.7-.521-1.187-3.645-.143-5.492,4.949,0,0-1.145.5-1.845.858s-.42,1.016.1.872c.4-.111,1.411-.525,1.411-.525a71.638,71.638,0,0,1-2.271,8.646c-.942,2.107.48,1.708.76,1.326,1.562-2.133,1.842-9.126,2.837-10.581a15.685,15.685,0,0,1,3.735-1.268" transform="translate(-171.552 -73.243)" fill="#040405"/>
      <path id="Tracciato_303" data-name="Tracciato 303" d="M338.755,145.419c-.341,0-1.16,0-3.653,3.621-.168.244-.26.24-.221-.026.122-.8,1.166-3.513.161-3.391a34.141,34.141,0,0,1-4.481.113c-2.143-.14-3.988,5.029-3.509,6.191.725,1.757,3.138.307,4.49-1.394,1.292-1.626,1.035-3.122.439-3.928a17.381,17.381,0,0,0,2.59-.273l-.815,3.573s-.362,1.395-.492,1.766c-.261.749.291.985.456.985s.335-.1.457-.377c.927-2.072,1.9-4.31,3.884-5.57,1.9-1.2,1.022-1.287.694-1.288m-7.347,2.626c-.081.932-1.19,3.6-2.807,3.718-.311.022-.525-.267-.525-.669v-.021c0-1.195,1.093-2.9,1.678-3.7,1.189-1.613,1.719-.079,1.655.671" transform="translate(-177.729 -79.043)" fill="#040405"/>
      <path id="Tracciato_304" data-name="Tracciato 304" d="M430.909,145.277c-.341,0-1.2.116-3.653,3.62-.171.243-.26.24-.221-.026.119-.809.278-1.613.437-2.414.033-.18.168-.622.025-.785-.185-.21-.523.111-.7.327a2,2,0,0,0-.363,1.034c-.09.567-.3,1.706-.529,2.727,0,0-.362,1.395-.491,1.767-.262.749.291.985.456.985s.335-.1.456-.377c.927-2.073,1.9-4.31,3.884-5.571,1.9-1.2,1.022-1.286.694-1.287" transform="translate(-231.201 -78.966)" fill="#040405"/>
      <path id="Tracciato_305" data-name="Tracciato 305" d="M446.276,152.468c-.494,0-.865-.5-.525-1.873a13.25,13.25,0,0,1,.718-2.1c.627-1.447-1.028-1.369-2.16-.308-.635.595-1.866,1.936-1.866,1.936s-.19-.607.631-2.168c.353-.671-.224-1.506-.794-.377a21.916,21.916,0,0,0-.995,2.813c-1.755,1.891-4.961,3.347-4.9,1.42.01-.346.154-1.142.154-1.142,1.118.832,3.809-.954,3.348-2.672-.309-1.154-1.411-1.195-2.311-.544-1.891,1.369-3.286,5.833-.827,6.173,1.144.158,2.847-.771,4.3-2.194-.267,1.169-.036,1.306.071,1.386.295.216.585-.253.718-.475a15.438,15.438,0,0,1,3.238-3.971c.231-.2.361-.276.418-.225s.037.15-.075.478a15.239,15.239,0,0,0-.575,1.965c-.393,1.8.194,2.761,1.02,2.761.965,0,1.3-.883.416-.883m-9.437-2.569s.56-1.941,1.667-2.049a.554.554,0,0,1,.5.691,1.652,1.652,0,0,1-2.169,1.359" transform="translate(-236.679 -79.915)" fill="#040405"/>
      <path id="Tracciato_306" data-name="Tracciato 306" d="M393.218,137.432a.63.63,0,0,0,.069-.683c-.1-.216-.213-.286-.3-.3s-.188.025-.319.2c-.012.016-.021.033-.033.049-1.107,1.639-3.136,5.248-3.136,5.248s-1.56-1.521-4.093,2.143l-.005,0s-2.479,2.56-3.392,2.567-.736-1.226-.585-1.782c.339-1.263,1.8-5.544,3.188-7.078.684-.756.11-1.315-.117-1.313-.281,0-1.066.819-2.776,4.667a21.027,21.027,0,0,0-1.157,3.264,6.6,6.6,0,0,1-2.951,2.242.561.561,0,0,1-.576-.3,3.368,3.368,0,0,1,.259-2.482c.392-.825,1.04-1.248.7-1.875-.734-1.359-2.054,3.45-2.064,3.513-.087.077-1.205,1.134-1.807,1.134-1.77,0,.632-3.943-.266-4.692-1.51-1.26-4.758,3.176-4.758,3.176a21.349,21.349,0,0,1,3.11-7.3,1.852,1.852,0,0,0,.43-.859.7.7,0,0,0-.351-.625c-.18-.066-.328.1-.421.236a32.523,32.523,0,0,0-3.514,7.617s-3.034,3.694-4.527,2.8c-.464-.278-.609-.781-.431-1.5.4-1.621,2.336-3.791,3.959-3.874a.416.416,0,0,0-.042-.831c-2.03.1-4.359,2.563-4.842,4.5a2.017,2.017,0,0,0,.811,2.411,1.971,1.971,0,0,0,1.028.281c1.373,0,2.838-1.279,3.73-2.217-.447,2.8.492,1.939.682,1.644a17.825,17.825,0,0,1,3.54-4.418c.513-.474.946-.4.866-.058-1.674,4.54.049,5.031,1.153,4.615A5.356,5.356,0,0,0,375.9,146.5a1.356,1.356,0,0,0,1.872,1.069,7.239,7.239,0,0,0,2.549-1.989c-.175.607-.058,2.608,1.849,1.985a6.847,6.847,0,0,0,2.546-1.985c-.436,1.23-.293,3.015,2.052,1.171a16.767,16.767,0,0,0,2.007-2.146c.081-.118.152-.143.114.016a9.783,9.783,0,0,0-.2,1.439c-.036.453.008,1.107.482,1.324.294.138.645-.136.756-.389.237-.537-.6-.368-.4-1.492.425-2.5,1.369-4.362,3.695-8.072m-6.712,8.579c-.168.118-.5.36-.7.225-.488-.323.5-1.838.734-2.182,1.078-1.559,1.839-1.678,2.176-1.316.645.692-1.97,3.106-2.207,3.274" transform="translate(-196.97 -74.105)" fill="#040405"/>
      <path id="Tracciato_307" data-name="Tracciato 307" d="M463.169,116.426h-1.339v-.543h3.3v.543h-1.339v3.765h-.617Z" transform="translate(-251.03 -62.989)" fill="#040405"/>
      <path id="Tracciato_308" data-name="Tracciato 308" d="M470.418,115.883h1.018l1.352,3.579,1.327-3.579h1.018v4.307h-.617v-3.728H474.5l-1.425,3.728h-.6l-1.426-3.728h-.012v3.728h-.617Z" transform="translate(-255.698 -62.989)" fill="#040405"/>
    </g>
  </g>
</svg>
